<svg xmlns="http://www.w3.org/2000/svg" xmlns:xlink="http://www.w3.org/1999/xlink" xmlns:lucid="lucid" width="1920" height="1080"><g transform="translate(20 180)" lucid:page-tab-id="0_0"><path d="M0-500h2000v1500H0z" fill="#fff"/><path d="M240-154a6 6 0 0 1 6-6h1628a6 6 0 0 1 6 6V874a6 6 0 0 1-6 6H246a6 6 0 0 1-6-6z" stroke="#232f3e" fill="#fff" fill-opacity="0"/><path d="M240-160h56v56h-56v-56z" stroke="#fff" stroke-opacity="0" fill="#232f3e"/><path d="M280.88-118.78h-25c-4.13.05-7.57-3.1-7.9-7.2v-.64c-.15-3.4 1.97-6.38 5.25-7.36v-.66c.12-4.22 2.44-7.75 6.24-9.57 4.13-1.86 8.73-.96 11.8 2.3 1.1 1.1 1.85 2.2 2.45 3.6 1.2-1 2.72-1.32 4.24-.9 2.24.8 3.68 2.74 3.76 5.1 3.68.65 6.32 3.8 6.28 7.56 0 7.07-7.04 7.73-7.12 7.76zm-26.7-13.88c-2.83.6-4.75 3.14-4.6 6.04v.53c.3 3.33 3.1 5.84 6.4 5.76h24.98c3.04-.3 5.4-2.64 5.68-5.7.28-3.43-2.24-6.5-5.68-6.78-.44-.05-.72-.44-.64-.87.08-1.83-1-3.44-2.72-4.13-1.32-.37-2.64.13-3.44 1.24-.2.25-.44.38-.76.33-.28-.05-.48-.24-.6-.5-.6-1.6-1.4-2.85-2.6-4.04-2.7-2.8-6.6-3.6-10.13-2-3.24 1.6-5.2 4.63-5.32 8.24-.04.4-.04.74 0 1.14.04.4-.2.76-.6.84z" stroke="#fff" stroke-opacity="0" fill="#fff"/><use xlink:href="#a" transform="matrix(1,0,0,1,311,-140) translate(0 14.4)"/><use xlink:href="#b" transform="matrix(1,0,0,1,311,-140) translate(45.3 14.4)"/><path d="M320 166a6 6 0 0 1 6-6h188a6 6 0 0 1 6 6v268a6 6 0 0 1-6 6H326a6 6 0 0 1-6-6z" fill="#fff" fill-opacity="0"/><path d="M323.7 160.47l.45-.18.9-.23.95-.07h1.96m3.92 0h3.9m3.93 0h3.93m3.9 0h3.93m3.92 0h3.9m3.93 0h3.93m3.9 0h3.93m3.92 0h3.9m3.93 0h3.93m3.9 0h3.93m3.92 0h3.9m3.93 0h3.93m3.9 0h3.93m3.92 0h3.9m3.93 0h3.93m3.9 0h3.93m3.92 0h3.9m3.93 0h3.93m3.9 0h3.93m3.92 0h3.9m3.93 0h3.93m3.9 0h3.93m3.92 0h3.9m3.93 0h3.93m3.9 0H514l.94.07.9.22.45.17m3.23 3.24l.18.45.23.9.07.95v1.97m0 3.94v3.95m0 3.94v3.94m0 3.94v3.94m0 3.94v3.94m0 3.94v3.94m0 3.94v3.94m0 3.95v3.95m0 3.94v3.93m0 3.94v3.94m0 3.95v3.94m0 3.94v3.94m0 3.94v3.94m0 3.94v3.94m0 3.94v3.94m0 3.94v3.95m0 3.95v3.94m0 3.93v3.94m0 3.94v3.95m0 3.94v3.94m0 3.94v3.94m0 3.94v3.94m0 3.94v3.94m0 3.94v3.94m0 3.95v3.95m0 3.94v3.93m0 3.94v3.94m0 3.95v3.94m0 3.94v3.94m0 3.94v3.94m0 3.94v3.94m0 3.94v3.94m0 3.94v3.95m0 3.95v3.94m0 3.93V434l-.07.94-.22.9-.17.45m-3.24 3.23l-.45.18-.9.23-.95.07h-1.96m-3.9 0h-3.93m-3.9 0h-3.93m-3.9 0h-3.93m-3.92 0h-3.9m-3.93 0h-3.93m-3.9 0h-3.93m-3.92 0h-3.9m-3.93 0h-3.93m-3.9 0h-3.93m-3.92 0h-3.9m-3.93 0h-3.93m-3.9 0h-3.93m-3.92 0h-3.9m-3.93 0h-3.93m-3.9 0h-3.93m-3.92 0h-3.9m-3.93 0h-3.93m-3.9 0h-3.93m-3.92 0h-3.9m-3.93 0h-3.93m-3.9 0h-3.93m-3.92 0h-3.9m-3.93 0h-3.93m-3.9 0H326l-.94-.07-.9-.22-.45-.17m-3.23-3.24l-.18-.45-.23-.9-.07-.95v-1.97m0-3.94v-3.95m0-3.94v-3.94m0-3.94v-3.94m0-3.94v-3.94m0-3.94v-3.94m0-3.94v-3.94m0-3.95v-3.95m0-3.94v-3.93m0-3.94v-3.94m0-3.95v-3.94m0-3.94v-3.94m0-3.94v-3.94m0-3.94v-3.94m0-3.94v-3.94m0-3.94v-3.95m0-3.95v-3.94m0-3.93v-3.94m0-3.94v-3.95m0-3.94v-3.94m0-3.94v-3.94m0-3.94v-3.94m0-3.94v-3.94m0-3.94v-3.94m0-3.95v-3.95m0-3.94v-3.93m0-3.94v-3.94m0-3.95v-3.94m0-3.94v-3.94m0-3.94v-3.94m0-3.94v-3.94m0-3.94v-3.94m0-3.94v-3.95m0-3.95v-3.94m0-3.93V166l.07-.94.22-.9.17-.45" stroke="#5a6c86" fill="none"/><use xlink:href="#c" transform="matrix(1,0,0,1,320,180) translate(64.05 14.4)"/><path d="M640-74a6 6 0 0 1 6-6h1188a6 6 0 0 1 6 6v908a6 6 0 0 1-6 6H646a6 6 0 0 1-6-6z" fill="#fff" fill-opacity="0"/><path d="M643.7-79.53l.45-.18.9-.23.95-.07h2m3.98 0h4m3.97 0h4m3.98 0h3.98m4 0h4m3.97 0h4m3.98 0h3.98m4 0h3.97m4 0h3.98m4 0h3.97m4 0h3.98m3.98 0h4m3.98 0h4m3.98 0h3.98m4 0h3.98m3.98 0h4m3.98 0h3.98m4 0h3.98m3.98 0h4m3.98 0h3.98m4 0h3.98m3.98 0h4m3.98 0h3.98m4 0h3.98m3.98 0h4m3.98 0h3.98m4 0h3.97m3.98 0h4m3.98 0h3.98m4 0h3.98m3.98 0h4m3.97 0h4m3.98 0h3.98m4 0h3.98m4 0h3.98m4 0h3.97m4 0h3.98m3.98 0h4m4 0h3.97m4 0h3.98m3.98 0h4m3.98 0h4m3.98 0h4m3.97 0h4m3.98 0h3.98m4 0h4m3.97 0h4m3.98 0h3.98m4 0h3.97m4 0h3.98m3.98 0h4m3.98 0h3.98m4 0h3.98m3.98 0h4m3.98 0h3.98m4 0h3.98m3.98 0h4m3.98 0h3.98m4 0h3.98m3.98 0h4m3.98 0h3.98m4 0h3.98m3.98 0h4m3.98 0h3.98m4 0h3.98m3.98 0h4m3.97 0h4m3.98 0h4m3.98 0h4m3.97 0h4m3.98 0h3.98m4 0h4m3.97 0h4m3.98 0h3.98m4 0h3.98m4 0h3.98m4 0h3.97m4 0h3.98m3.98 0h4m4 0h3.97m4 0h3.98m3.98 0h4m3.98 0h4m3.98 0h4m3.97 0h4m3.97 0h4m3.98 0h3.98m4 0h3.98m3.98 0h4m3.98 0h3.98m4 0h3.98m3.98 0h4m3.98 0h3.98m4 0h3.98m3.98 0h4m3.98 0h3.98m4 0h3.98m3.98 0h4m3.98 0h3.98m4 0h3.98m3.98 0h4m3.98 0h3.98m4 0h3.98m3.98 0h4m3.97 0h4m4 0h3.97m4 0h3.98m3.98 0h4m3.98 0h4m3.98 0h4m3.97 0h4m3.98 0h3.98m4 0h4m3.97 0h4m3.98 0h3.98m4 0h3.98m4 0h3.98m4 0h3.97m4 0h3.98m3.98 0h4m4 0h3.97m4 0h3.97m4 0h3.98m3.98 0h4m3.98 0h3.98m4 0h3.98m3.98 0h4m3.98 0h3.98m4 0h3.98m3.98 0h4m3.98 0h3.98m4 0h3.98m3.98 0h4m3.98 0h3.98m4 0h3.98m3.98 0h4m3.98 0h3.98m4 0h3.98m3.98 0h4m3.98 0h3.98m4 0h3.97m4 0h3.98m4 0h3.98m4 0h3.97m4 0h3.98m3.98 0h4m4 0h3.97m4 0h3.98m3.98 0h4m3.98 0h2l.94.07.9.22.45.17m3.23 3.24l.18.45.23.9.07.95v2m0 3.97v4m0 3.97v3.98m0 3.98v4m0 3.97v3.98m0 3.98v4m0 3.97v3.98m0 3.98v4m0 3.97v3.98m0 4v3.97m0 4v3.97m0 3.98v4m0 3.97v3.97m0 3.98v3.98m0 4v3.97m0 3.98v4m0 3.97v3.98m0 3.98v4m0 3.98v3.98m0 3.98v3.98m0 4v3.97m0 3.97v3.98m0 4v3.97m0 3.98v3.98m0 4v3.97m0 3.98v3.98m0 4v3.98m0 3.98v3.98m0 4V151m0 4v3.97m0 4v3.97m0 3.98v3.98m0 4v3.97m0 3.98v3.98m0 4v3.97m0 3.98v3.98m0 4v3.97m0 3.98v4m0 3.98v3.98m0 3.98v3.98m0 3.98v4m0 3.97v3.98m0 4v3.97m0 3.98v3.98m0 3.98v4m0 3.97v3.98m0 4v3.98m0 3.98v3.98m0 4v3.97m0 4v3.97m0 3.98v4m0 3.97v3.98m0 3.98v4m0 3.97v3.98m0 3.98v4m0 3.98v3.98m0 3.98v4m0 3.97v4m0 3.97v4m0 3.97v3.98m0 3.98v4m0 3.97v3.98m0 3.98v4m0 3.97v3.98m0 3.98v4m0 3.97v3.98m0 4v3.98m0 3.98v3.98m0 3.98v4m0 3.97v3.97m0 3.98v4m0 3.97v3.98m0 3.98v3.98m0 4v3.97m0 3.98v4m0 3.98v3.98m0 3.98v4m0 3.97v4m0 3.97v3.98m0 4v3.97m0 3.98v3.98m0 4v3.97m0 3.98v3.98m0 4v3.98m0 3.98v3.98m0 4V605m0 4v3.97m0 4v3.97m0 3.98v3.98m0 4v3.97m0 3.98v3.98m0 4v3.97m0 3.98v3.98m0 4v3.97m0 3.98v4m0 3.97v4m0 3.97v3.98m0 4v3.97m0 3.97v3.98m0 4v3.97m0 3.98v3.98m0 4v3.97m0 3.98v3.98m0 4v3.98m0 3.98v3.98m0 4v3.97m0 4v3.97m0 3.98v4m0 3.97v3.98m0 3.98v4m0 3.97v3.98m0 3.98v4m0 3.98v3.98m0 3.98v4m0 3.97v2l-.07.94-.22.9-.17.45m-3.24 3.23l-.45.18-.9.23-.95.07h-2m-3.98 0h-4m-3.97 0h-4m-3.98 0h-3.98m-4 0h-4m-3.97 0h-4m-3.98 0h-3.98m-4 0h-3.98m-4 0h-3.98m-4 0h-3.97m-4 0h-3.97m-4 0h-3.98m-3.98 0h-4m-3.98 0h-3.98m-4 0h-3.98m-3.98 0h-4m-3.98 0h-3.98m-4 0h-3.98m-3.98 0h-4m-3.98 0h-3.98m-4 0h-3.98m-3.98 0h-4m-3.98 0h-3.98m-4 0h-3.98m-3.98 0h-4m-3.98 0h-3.98m-4 0h-3.98m-3.98 0h-4m-3.98 0h-3.98m-4 0h-3.97m-4 0h-4m-3.97 0h-4m-3.98 0h-3.98m-4 0h-3.98m-4 0h-3.98m-4 0h-3.97m-4 0h-3.98m-3.98 0h-4m-4 0h-3.97m-4 0h-3.98m-3.98 0h-4m-3.98 0h-4m-3.98 0h-4m-3.97 0h-4m-3.98 0h-3.98m-4 0h-4m-3.97 0h-4m-3.97 0h-4m-3.98 0h-3.98m-4 0h-3.98m-3.98 0h-4m-3.98 0h-3.98m-4 0h-3.98m-3.98 0h-4m-3.98 0h-3.98m-4 0h-3.98m-3.98 0h-4m-3.98 0h-3.98m-4 0h-3.98m-3.98 0h-4m-3.98 0h-3.98m-4 0h-3.98m-3.98 0h-4m-3.98 0h-3.98m-4 0h-3.98m-3.98 0h-4m-3.97 0h-4m-3.98 0h-4m-3.98 0h-4m-3.97 0h-4m-3.98 0h-3.98m-4 0h-4m-3.97 0h-4m-3.98 0h-3.98m-4 0H1242m-4 0h-3.98m-4 0h-3.97m-4 0h-3.98m-3.98 0h-4m-4 0h-3.97m-4 0h-3.98m-3.98 0h-4m-3.98 0h-4m-3.98 0h-4m-3.97 0h-4m-3.97 0h-4m-3.98 0h-3.98m-4 0h-3.98m-3.98 0h-4m-3.98 0h-3.98m-4 0h-3.98m-3.98 0h-4m-3.98 0h-3.98m-4 0h-3.98m-3.98 0h-4m-3.98 0h-3.98m-4 0h-3.98m-3.98 0h-4m-3.98 0h-3.98m-4 0h-3.98m-3.98 0h-4m-3.98 0h-3.98m-4 0h-3.98m-3.98 0h-4m-3.98 0h-3.98m-4 0h-3.97m-4 0h-3.98m-3.98 0h-4m-3.98 0h-4m-3.98 0h-4m-3.97 0h-4m-3.98 0H947m-4 0h-4m-3.97 0h-4m-3.98 0h-3.98m-4 0h-3.98m-4 0h-3.98m-4 0h-3.97m-4 0h-3.98m-3.98 0h-4m-4 0h-3.97m-4 0h-3.98m-3.98 0h-4m-3.98 0h-4m-3.98 0h-3.98m-4 0h-3.98m-3.98 0h-4m-3.98 0h-3.98m-4 0h-3.98m-3.98 0h-4m-3.98 0h-3.98m-4 0h-3.98m-3.98 0h-4m-3.98 0h-3.98m-4 0h-3.98m-3.98 0h-4m-3.98 0h-3.98m-4 0h-3.98m-3.98 0h-4m-3.98 0h-3.98m-4 0h-3.98m-3.98 0h-4m-3.98 0h-3.98m-4 0h-3.97m-4 0h-3.98m-3.98 0h-4m-4 0h-3.97m-4 0h-3.98m-3.98 0h-4m-3.98 0h-2l-.94-.07-.9-.22-.45-.17m-3.23-3.24l-.18-.45-.23-.9-.07-.95v-2m0-3.97v-4m0-3.97v-3.98m0-3.98v-4m0-3.97v-3.98m0-3.98v-4m0-3.97v-3.98m0-3.98v-4m0-3.97v-3.98m0-4v-3.97m0-4v-3.97m0-3.98v-4m0-3.97v-3.97m0-3.98v-4m0-3.97v-3.98m0-3.98v-4m0-3.97v-3.98m0-3.98v-4m0-3.98v-3.98m0-3.98v-4m0-3.97v-4m0-3.97v-3.98m0-4v-3.97m0-3.98v-3.98m0-4v-3.97m0-3.98v-3.98m0-4v-3.98m0-3.98v-3.98m0-4V609m0-4v-3.97m0-4v-3.97m0-3.98v-3.98m0-4v-3.97m0-3.98v-3.98m0-4v-3.97m0-3.98v-3.98m0-4v-3.97m0-3.98v-4m0-3.97v-4m0-3.97v-3.98m0-4v-3.97m0-3.97v-3.98m0-4v-3.97m0-3.98v-3.98m0-3.98v-4m0-3.97v-3.98m0-4v-3.98m0-3.98v-3.98m0-4v-3.97m0-4v-3.97m0-3.98v-4m0-3.97v-3.98m0-3.98v-4m0-3.97v-3.98m0-3.98v-4m0-3.98v-3.98m0-3.98v-4m0-3.97v-4m0-3.97v-4m0-3.97v-3.98m0-3.98v-4m0-3.97v-3.98m0-3.98v-4m0-3.97v-3.98m0-3.98v-4m0-3.97v-3.98m0-4v-3.98m0-3.98v-3.98m0-3.98v-4m0-3.97v-3.97m0-3.98v-4m0-3.97v-3.98m0-3.98v-3.98m0-4v-3.97m0-3.98v-4m0-3.98v-3.98m0-3.98v-3.98m0-4v-3.97m0-3.97v-3.98m0-4v-3.97m0-3.98v-3.98m0-4v-3.97m0-3.98v-3.98m0-4v-3.98m0-3.98v-3.98m0-4V155m0-4v-3.97m0-4v-3.97m0-3.98v-3.98m0-4v-3.97m0-3.98v-3.98m0-4v-3.97m0-3.98v-3.98m0-4v-3.97m0-3.98v-4m0-3.97v-4m0-3.97v-3.98m0-3.98v-4m0-3.97v-3.98m0-3.98v-4m0-3.97v-3.98m0-4v-3.97m0-3.98V19.6m0-4v-3.98m0-3.98V3.66m0-4V-4.3m0-4v-3.97m0-3.98v-4m0-3.97v-3.98m0-3.98v-4m0-3.97v-3.98m0-3.98v-4m0-3.98v-3.98m0-3.98v-4m0-3.97v-2l.07-.94.22-.9.17-.45" stroke="#5a6c86" fill="none"/><use xlink:href="#d" transform="matrix(1,0,0,1,640,-60) translate(565 14.4)"/><path d="M1200-34a6 6 0 0 1 6-6h588a6 6 0 0 1 6 6v448a6 6 0 0 1-6 6h-588a6 6 0 0 1-6-6z" fill="#fff" fill-opacity="0"/><path d="M1203.7-39.53l.45-.18.9-.23.95-.07h2m3.96 0h3.97m3.97 0h3.98m3.97 0h3.97m3.98 0h3.97m3.97 0h3.98m3.97 0h3.96m3.97 0h3.98m3.98 0h3.97m3.98 0h3.97m3.97 0h3.98m3.97 0h3.97m3.96 0h3.98m3.97 0h3.98m3.98 0h3.97m3.97 0h3.98m3.97 0h3.97m3.98 0h3.97m3.97 0h3.97m4 0h3.96m3.97 0h3.97m3.98 0h3.97m3.97 0h3.98m3.97 0h3.97m3.98 0h3.97m3.96 0h3.97m3.98 0h3.98m3.97 0h3.98m3.97 0h3.97m3.98 0h3.97m3.97 0h3.96m3.98 0h3.97m3.98 0h3.98m3.97 0h3.97m3.98 0h3.97m3.97 0h3.98m3.97 0h3.97m3.97 0h4m3.96 0h3.97m3.97 0h3.98m3.97 0h3.97m3.98 0h3.97m3.97 0h3.98m3.97 0h3.96m3.97 0h3.98m3.98 0h3.97m3.98 0h3.97m3.97 0h3.98m3.97 0h3.97m3.96 0h3.98m3.97 0h3.98m3.98 0h3.97m3.97 0h3.98m3.97 0h3.97m3.98 0h3.97m3.97 0h3.97m4 0h3.96m3.97 0h3.97m3.98 0h3.97m3.97 0h3.98m3.97 0h3.97m3.98 0h3.97m3.96 0h3.97m3.98 0h3.98m3.97 0h3.98m3.97 0h3.97m3.98 0h3.97m3.97 0h3.96m3.98 0h3.97m3.98 0h3.98m3.97 0h3.97m3.98 0h3.97m3.97 0h3.98m3.97 0h3.97m3.97 0h2l.94.07.9.22.45.17m3.23 3.24l.18.45.23.9.07.95v2m0 4v4m0 4v4m0 4v4m0 4v4m0 4v4m0 4v4m0 4v4m0 4v4m0 4v4m0 4v4m0 4v4m0 4v4m0 4v4m0 4v4m0 4v4m0 4v4m0 4v4m0 4v4m0 4v4m0 4v4m0 4v4m0 4v4m0 4v4m0 4v4m0 4v4m0 4v4m0 4v4m0 4v4m0 4v4m0 4v4m0 4v4m0 4v4m0 4v4m0 4v4m0 4v4m0 4v4m0 4v4m0 4v4m0 4v4m0 4v4m0 4v4m0 4v4m0 4v4m0 4v4m0 4v4m0 4v4m0 4v4m0 4v4m0 4v4m0 4v4m0 4v4m0 4v4m0 4v4m0 4v4m0 4v4m0 4v2l-.07.94-.22.9-.17.45m-3.24 3.23l-.45.18-.9.23-.95.07h-2m-3.96 0h-3.97m-3.97 0h-3.98m-3.97 0h-3.97m-3.98 0h-3.97m-3.97 0h-3.98m-3.97 0h-3.96m-3.97 0h-3.98m-3.98 0h-3.97m-3.98 0h-3.97m-3.97 0h-3.98m-3.97 0h-3.97m-3.96 0h-3.98m-3.97 0h-3.98m-3.98 0h-3.97m-3.97 0h-3.98m-3.97 0h-3.97m-3.98 0h-3.97m-3.97 0H1649m-4 0h-3.96m-3.97 0h-3.97m-3.98 0h-3.97m-3.97 0h-3.98m-3.97 0h-3.97m-3.98 0h-3.97m-3.96 0h-3.97m-3.98 0h-3.98m-3.97 0h-3.98m-3.97 0h-3.97m-3.98 0h-3.97m-3.97 0h-3.96m-3.98 0h-3.97m-3.98 0h-3.98m-3.97 0h-3.97m-3.98 0h-3.97m-3.97 0h-3.98m-3.97 0h-3.97m-3.97 0h-4m-3.96 0h-3.97m-3.97 0h-3.98m-3.97 0h-3.97m-3.98 0h-3.97m-3.97 0h-3.98m-3.97 0h-3.96m-3.97 0h-3.98m-3.98 0h-3.97m-3.98 0h-3.97m-3.97 0h-3.98m-3.97 0h-3.97m-3.96 0h-3.98m-3.97 0h-3.98m-3.98 0h-3.97m-3.97 0h-3.98m-3.97 0h-3.97m-3.98 0h-3.97m-3.97 0H1355m-4 0h-3.96m-3.97 0h-3.97m-3.98 0h-3.97m-3.97 0h-3.98m-3.97 0h-3.97m-3.98 0h-3.97m-3.96 0h-3.97m-3.98 0h-3.98m-3.97 0h-3.98m-3.97 0h-3.97m-3.98 0h-3.97m-3.97 0h-3.96m-3.98 0h-3.97m-3.98 0h-3.98m-3.97 0h-3.97m-3.98 0h-3.97m-3.97 0h-3.98m-3.97 0h-3.97m-3.97 0h-2l-.94-.07-.9-.22-.45-.17m-3.23-3.24l-.18-.45-.23-.9-.07-.95v-2m0-4v-4m0-4v-4m0-4v-4m0-4v-4m0-4v-4m0-4v-4m0-4v-4m0-4v-4m0-4v-4m0-4v-4m0-4v-4m0-4v-4m0-4v-4m0-4v-4m0-4v-4m0-4v-4m0-4v-4m0-4v-4m0-4v-4m0-4v-4m0-4v-4m0-4v-4m0-4v-4m0-4v-4m0-4v-4m0-4v-4m0-4v-4m0-4v-4m0-4v-4m0-4v-4m0-4v-4m0-4v-4m0-4v-4m0-4v-4m0-4v-4m0-4v-4m0-4v-4m0-4v-4m0-4v-4m0-4v-4m0-4v-4m0-4v-4m0-4v-4m0-4v-4m0-4v-4m0-4v-4m0-4v-4m0-4v-4m0-4v-4m0-4v-4m0-4V4m0-4v-4m0-4v-4m0-4v-4m0-4v-4m0-4v-2l.07-.94.22-.9.17-.45" stroke="#5a6c86" fill="none"/><use xlink:href="#e" transform="matrix(1,0,0,1,1200,-20) translate(191.6 14.4)"/><use xlink:href="#f" transform="matrix(1,0,0,1,1200,-20) translate(238.6 14.4)"/><use xlink:href="#g" transform="matrix(1,0,0,1,1200,-20) translate(348.5 14.4)"/><path d="M1200 466a6 6 0 0 1 6-6h588a6 6 0 0 1 6 6v228a6 6 0 0 1-6 6h-588a6 6 0 0 1-6-6z" fill="#fff" fill-opacity="0"/><path d="M1203.7 460.47l.45-.18.9-.23.95-.07h2m3.96 0h3.97m3.97 0h3.98m3.97 0h3.97m3.98 0h3.97m3.97 0h3.98m3.97 0h3.96m3.97 0h3.98m3.98 0h3.97m3.98 0h3.97m3.97 0h3.98m3.97 0h3.97m3.96 0h3.98m3.97 0h3.98m3.98 0h3.97m3.97 0h3.98m3.97 0h3.97m3.98 0h3.97m3.97 0h3.97m4 0h3.96m3.97 0h3.97m3.98 0h3.97m3.97 0h3.98m3.97 0h3.97m3.98 0h3.97m3.96 0h3.97m3.98 0h3.98m3.97 0h3.98m3.97 0h3.97m3.98 0h3.97m3.97 0h3.96m3.98 0h3.97m3.98 0h3.98m3.97 0h3.97m3.98 0h3.97m3.97 0h3.98m3.97 0h3.97m3.97 0h4m3.96 0h3.97m3.97 0h3.98m3.97 0h3.97m3.98 0h3.97m3.97 0h3.98m3.97 0h3.96m3.97 0h3.98m3.98 0h3.97m3.98 0h3.97m3.97 0h3.98m3.97 0h3.97m3.96 0h3.98m3.97 0h3.98m3.98 0h3.97m3.97 0h3.98m3.97 0h3.97m3.98 0h3.97m3.97 0h3.97m4 0h3.96m3.97 0h3.97m3.98 0h3.97m3.97 0h3.98m3.97 0h3.97m3.98 0h3.97m3.96 0h3.97m3.98 0h3.98m3.97 0h3.98m3.97 0h3.97m3.98 0h3.97m3.97 0h3.96m3.98 0h3.97m3.98 0h3.98m3.97 0h3.97m3.98 0h3.97m3.97 0h3.98m3.97 0h3.97m3.97 0h2l.94.07.9.22.45.17m3.23 3.24l.18.45.23.9.07.95v1.97m0 3.93v3.93m0 3.93v3.93m0 3.92v3.93m0 3.93v3.93m0 3.95v3.93m0 3.93v3.94m0 3.93V523m0 3.93v3.93m0 3.93v3.92m0 3.93v3.94m0 3.92v3.93m0 3.93v3.93m0 3.94v3.93m0 3.93v3.93m0 3.94v3.93m0 3.93v3.93m0 3.93v3.92m0 3.93v3.93m0 3.93v3.95m0 3.93v3.93m0 3.94v3.93m0 3.93v3.93m0 3.93v3.93m0 3.92v3.93m0 3.94v3.92m0 3.93v3.93m0 3.93v3.94m0 3.93v3.93m0 3.93V694l-.07.94-.22.9-.17.45m-3.24 3.23l-.45.18-.9.23-.95.07h-2m-3.96 0h-3.97m-3.97 0h-3.98m-3.97 0h-3.97m-3.98 0h-3.97m-3.97 0h-3.98m-3.97 0h-3.96m-3.97 0h-3.98m-3.98 0h-3.97m-3.98 0h-3.97m-3.97 0h-3.98m-3.97 0h-3.97m-3.96 0h-3.98m-3.97 0h-3.98m-3.98 0h-3.97m-3.97 0h-3.98m-3.97 0h-3.97m-3.98 0h-3.97m-3.97 0H1649m-4 0h-3.96m-3.97 0h-3.97m-3.98 0h-3.97m-3.97 0h-3.98m-3.97 0h-3.97m-3.98 0h-3.97m-3.96 0h-3.97m-3.98 0h-3.98m-3.97 0h-3.98m-3.97 0h-3.97m-3.98 0h-3.97m-3.97 0h-3.96m-3.98 0h-3.97m-3.98 0h-3.98m-3.97 0h-3.97m-3.98 0h-3.97m-3.97 0h-3.98m-3.97 0h-3.97m-3.97 0h-4m-3.96 0h-3.97m-3.97 0h-3.98m-3.97 0h-3.97m-3.98 0h-3.97m-3.97 0h-3.98m-3.97 0h-3.96m-3.97 0h-3.98m-3.98 0h-3.97m-3.98 0h-3.97m-3.97 0h-3.98m-3.97 0h-3.97m-3.96 0h-3.98m-3.97 0h-3.98m-3.98 0h-3.97m-3.97 0h-3.98m-3.97 0h-3.97m-3.98 0h-3.97m-3.97 0H1355m-4 0h-3.96m-3.97 0h-3.97m-3.98 0h-3.97m-3.97 0h-3.98m-3.97 0h-3.97m-3.98 0h-3.97m-3.96 0h-3.97m-3.98 0h-3.98m-3.97 0h-3.98m-3.97 0h-3.97m-3.98 0h-3.97m-3.97 0h-3.96m-3.98 0h-3.97m-3.98 0h-3.98m-3.97 0h-3.97m-3.98 0h-3.97m-3.97 0h-3.98m-3.97 0h-3.97m-3.97 0h-2l-.94-.07-.9-.22-.45-.17m-3.23-3.24l-.18-.45-.23-.9-.07-.95v-1.97m0-3.93v-3.93m0-3.93v-3.93m0-3.92v-3.93m0-3.93v-3.93m0-3.95v-3.93m0-3.93v-3.94m0-3.93V637m0-3.93v-3.93m0-3.93v-3.92m0-3.93v-3.94m0-3.92v-3.93m0-3.93v-3.93m0-3.94v-3.93m0-3.93v-3.93m0-3.94v-3.93m0-3.93v-3.93m0-3.93v-3.92m0-3.93v-3.93m0-3.93v-3.95m0-3.93v-3.93m0-3.94v-3.93m0-3.93v-3.93m0-3.93v-3.93m0-3.92v-3.93m0-3.94v-3.92m0-3.93v-3.93m0-3.93v-3.94m0-3.93v-3.93m0-3.93V466l.07-.94.22-.9.17-.45" stroke="#5a6c86" fill="none"/><use xlink:href="#h" transform="matrix(1,0,0,1,1200,480) translate(204.625 14.4)"/><use xlink:href="#i" transform="matrix(1,0,0,1,1200,480) translate(272.575 14.4)"/><use xlink:href="#g" transform="matrix(1,0,0,1,1200,480) translate(335.475 14.4)"/><path d="M680 326a6 6 0 0 1 6-6h188a6 6 0 0 1 6 6v468a6 6 0 0 1-6 6H686a6 6 0 0 1-6-6z" fill="#fff" fill-opacity="0"/><path d="M683.7 320.47l.45-.18.9-.23.95-.07h1.96m3.9 0h3.93m3.9 0h3.92m3.92 0h3.92m3.9 0h3.93m3.9 0h3.92m3.92 0h3.92m3.9 0h3.93m3.9 0h3.92m3.92 0h3.92m3.9 0h3.93m3.9 0h3.92m3.92 0h3.92m3.9 0h3.93m3.9 0h3.92m3.92 0h3.92m3.9 0h3.93m3.9 0h3.92m3.92 0h3.92m3.9 0h3.93m3.9 0h3.92m3.92 0h3.92m3.9 0h3.93m3.9 0h3.92m3.92 0H874l.94.07.9.22.45.17m3.23 3.24l.18.45.23.9.07.95v1.98m0 3.97v3.97m0 3.96v3.97m0 3.96v3.98m0 3.97v3.96m0 3.98v3.96m0 3.97v3.98m0 3.96v3.97m0 3.98v3.96m0 3.97v3.97m0 3.97v3.97m0 3.97v3.97m0 3.96v3.97m0 3.97v3.96m0 3.97v3.96m0 3.97v3.97m0 3.96v3.97m0 3.96v3.97m0 3.97v3.96m0 3.97v3.96m0 3.96v3.97m0 3.96v3.96m0 3.96v3.97m0 3.96v3.96m0 3.97v3.96m0 3.96v3.97m0 3.95v3.97m0 3.97v3.95m0 3.97v3.97m0 3.95v3.97m0 3.96v3.97m0 3.96v3.98m0 3.97v3.96m0 3.98v3.97m0 3.96v3.98m0 3.96v3.97m0 3.98v3.96m0 3.97v3.98m0 3.96v3.97m0 3.97v3.97m0 3.96v3.97m0 3.97v3.96m0 3.97v3.97m0 3.96v3.97m0 3.96V677m0 3.97v3.96m0 3.97v3.96m0 3.97v3.97m0 3.96v3.97m0 3.97v3.96m0 3.97v3.96m0 3.96v3.97m0 3.96v3.96m0 3.96v3.97m0 3.96v3.96m0 3.97v3.95m0 3.97v3.97m0 3.95v3.97m0 3.97v3.95m0 3.97V794l-.07.94-.22.9-.17.45m-3.24 3.23l-.45.18-.9.23-.95.07h-1.96m-3.9 0h-3.93m-3.9 0h-3.92m-3.92 0h-3.92m-3.9 0h-3.93m-3.9 0h-3.92m-3.92 0h-3.92m-3.9 0h-3.93m-3.9 0h-3.92m-3.92 0h-3.92m-3.9 0h-3.93m-3.9 0h-3.92m-3.92 0h-3.92m-3.9 0h-3.93m-3.9 0h-3.92m-3.92 0h-3.92m-3.9 0h-3.93m-3.9 0h-3.92m-3.92 0h-3.92m-3.9 0h-3.93m-3.9 0h-3.92m-3.92 0h-3.92m-3.9 0h-3.93m-3.9 0h-3.92m-3.92 0H686l-.94-.07-.9-.22-.45-.17m-3.23-3.24l-.18-.45-.23-.9-.07-.95v-1.98m0-3.97v-3.96m0-3.98v-3.97m0-3.96v-3.98m0-3.97v-3.96m0-3.98v-3.96m0-3.97v-3.98m0-3.96v-3.97m0-3.98v-3.96m0-3.97v-3.97m0-3.97v-3.96m0-3.97v-3.97m0-3.96v-3.97m0-3.97v-3.96m0-3.97v-3.96m0-3.97v-3.97m0-3.96v-3.97m0-3.96v-3.97m0-3.97v-3.96m0-3.97v-3.97m0-3.96v-3.97m0-3.96v-3.96m0-3.97v-3.96m0-3.96v-3.96m0-3.97v-3.96m0-3.96v-3.97m0-3.95v-3.97m0-3.97v-3.95m0-3.97v-3.97m0-3.95v-3.97m0-3.96v-3.97m0-3.96v-3.98m0-3.97v-3.96m0-3.98v-3.97m0-3.96v-3.98m0-3.96v-3.97m0-3.98v-3.96m0-3.97v-3.98m0-3.96v-3.97m0-3.97v-3.97m0-3.97v-3.97m0-3.97v-3.96m0-3.97v-3.97m0-3.96v-3.97m0-3.96V443m0-3.97v-3.96m0-3.97v-3.96m0-3.97v-3.97m0-3.96v-3.97m0-3.96v-3.96m0-3.97v-3.96m0-3.96v-3.96m0-3.97v-3.96m0-3.96v-3.97m0-3.96v-3.96m0-3.97v-3.95m0-3.97v-3.97m0-3.95v-3.97m0-3.96v-3.97m0-3.97V326l.07-.94.22-.9.17-.45" stroke="#5a6c86" fill="none"/><use xlink:href="#j" transform="matrix(1,0,0,1,680,340) translate(16.625 14.4)"/><use xlink:href="#k" transform="matrix(1,0,0,1,680,340) translate(72.525 14.4)"/><use xlink:href="#g" transform="matrix(1,0,0,1,680,340) translate(123.47500000000001 14.4)"/><path d="M320-80h120V40H320V-80z" stroke="#000" stroke-opacity="0" fill="url(#l)"/><path d="M400.64-54.2c12.74 7.1 20.64 20.56 20.64 35.16 0 12.58-5.72 24.2-15.64 31.93-3.55 2.65-7.42 4.75-11.7 6.2-4.1 1.45-8.46 2.18-12.98 2.18-6.6 0-13.22-1.6-19.03-4.76-13.14-7-21.3-20.64-21.3-35.56 0-.8 0-1.6.1-2.42.96-16.85 12.5-31.37 28.7-36.2 3.7-1.14 7.58-1.7 11.53-1.7 6.94 0 13.7 1.77 19.68 5.16zm4.5 62.58c7.92-6.94 12.35-16.78 12.35-27.42 0-12.82-6.7-24.68-17.67-31.3-2.18.42-4.2.98-6.85 1.95l-1.2-3.54c1.03-.32 2-.65 2.97-.97-4.36-1.78-9.03-2.67-13.8-2.67-2.1 0-4.18.16-6.28.48 1.45.9 2.82 1.87 4.1 2.84l-2.25 2.98c-2.1-1.6-4.27-2.9-7.17-4.44-13.3 4.44-22.9 16.3-24.68 30.16 2.9-.56 5.65-.88 8.7-.96l.1 3.7c-3.23.1-5.98.5-9.04 1.14v.64c0 11.93 5.73 22.9 15.24 29.76-1.6-5.08-2.42-9.92-2.42-14.68 0-2.74.4-5.08.97-7.5.08-.56.24-1.13.32-1.7l3.7.73c-.15.57-.23 1.2-.4 1.78-.48 2.25-.88 4.27-.88 6.7 0 5.63 1.3 11.36 3.8 17.65 5.07 2.58 10.48 3.8 16.2 3.8 3.63 0 7.26-.57 10.64-1.62 1.54-2.9 2.58-5.57 3.55-8.7l3.55.96c-.48 1.85-1.05 3.54-1.77 5.16 1.77-.9 3.38-1.86 4.92-3-.4-1.04-.9-2.08-1.38-3.13l3.3-1.7c.5.97.98 1.94 1.38 2.9zM397.82-9.7c4.2 0 7.5 3.4 7.5 7.5 0 4.2-3.3 7.5-7.5 7.5-4.1 0-7.5-3.3-7.5-7.5 0-4.1 3.4-7.5 7.5-7.5zm-13.05-28.13c-4.2 0-7.58-3.3-7.58-7.5 0-4.1 3.4-7.5 7.58-7.5 4.1 0 7.5 3.4 7.5 7.5 0 4.2-3.4 7.5-7.5 7.5zm-22.58 7.5c4.2 0 7.5 3.4 7.5 7.5 0 4.2-3.3 7.58-7.5 7.58-4.1 0-7.5-3.4-7.5-7.58 0-4.1 3.4-7.5 7.5-7.5zm29.92-7.74c5.3 8.14 8.3 17 8.94 26.53l-3.8.24c-.56-8.87-3.3-17.1-8.3-24.67zM392-9.85l-2.57 2.74c-5.65-5.33-11.2-8.88-17.58-11.05l1.2-3.55c6.94 2.42 13 6.13 18.96 11.85zm-22.4-19.91l-3.16-2.02c2.9-4.44 5.4-7.42 8.55-10.16l2.5 2.82c-2.9 2.5-5.17 5.24-7.9 9.35zm15.15-19.28c-2.1 0-3.8 1.7-3.8 3.7 0 2.1 1.7 3.8 3.8 3.8 2.02 0 3.7-1.7 3.7-3.8 0-2-1.68-3.7-3.7-3.7zm-22.58 30c2.1 0 3.8-1.7 3.8-3.8 0-2-1.7-3.7-3.8-3.7-2.02 0-3.7 1.7-3.7 3.7 0 2.1 1.68 3.8 3.7 3.8zM397.8 1.6c2.1 0 3.8-1.7 3.8-3.8 0-2-1.7-3.7-3.8-3.7-2 0-3.7 1.7-3.7 3.7 0 2.1 1.7 3.8 3.7 3.8z" stroke="#000" stroke-opacity="0" fill="#fff"/><use xlink:href="#m" transform="matrix(1,0,0,1,290,49) translate(10.125 14.4)"/><use xlink:href="#n" transform="matrix(1,0,0,1,290,49) translate(81.075 14.4)"/><path d="M83.27-11.48C99.77-1.28 110 17.44 110 37.24c0 1.56-1.2 2.76-2.75 2.76H2.75C1.2 40 0 38.8 0 37.24 0 10.6 18.04-11.84 42.13-17.84 30.58-22.88 22.55-34.28 22.55-47.6 22.55-65.48 37.07-80 55-80c17.93 0 32.45 14.52 32.45 32.4 0 13.32-8.03 24.72-19.58 29.76 5.4 1.32 10.56 3.36 15.4 6.36zM5.6 34.6h98.8c-.9-17.04-9.9-32.64-24.1-41.4C72.7-11.6 63.9-14 55-14 28.6-14 6.93 7.48 5.6 34.6zm22.45-82.2c0 14.88 12.1 26.88 26.95 26.88s26.95-12 26.95-26.88c0-14.88-12.1-27-26.95-27s-26.95 12.12-26.95 27z" stroke="#000" stroke-opacity="0" fill="#242f3e"/><use xlink:href="#o" transform="matrix(1,0,0,1,-30,49) translate(66.05 14.4)"/><path d="M110.5-20h193.12" stroke="#3a414a" fill="none"/><path stroke="#3a414a" stroke-width=".05" fill="#3a414a"/><path d="M318.38-20l-14.26 4.63v-9.27z" stroke="#3a414a" fill="#3a414a"/><path d="M440.5 6.67H554a6 6 0 0 1 6 6V294a6 6 0 0 1-6 6h-66.78" stroke="#3a414a" fill="none"/><path d="M440.5 7.17h-.5v-1h.5z" stroke="#3a414a" stroke-width=".05" fill="#3a414a"/><path d="M472.46 300l14.26-4.63v9.26z" stroke="#3a414a" fill="#3a414a"/><path d="M475.88 306c.35 1.56-.1 3-1.04 4.08-1.16 1.44-3.02 2.04-5.68 2.04-1.86 0-4.18-.36-6.96-.96l-4.76 35.04c-.12 3.48-3.25 6.36-9.16 8.76-2.32.84-5 1.68-8 2.4-7.55 1.68-16.6 2.64-25.76 2.64-16.36 0-42.34-3.72-42.8-13.8l-11.6-85.56-.12-1.08v-.36c0-11.28 28.77-19.2 54.52-19.2 25.87 0 54.64 7.92 54.64 19.2v.36l-.12 1.08-4.76 34.8c7.43 4.2 11.02 7.44 11.6 10.56zm-23.9 39.72l4.88-36c-13-3.96-30.28-11.76-38.86-15.72-.8.36-1.74.72-2.78.72-3.02 0-5.46-2.52-5.46-5.52 0-3 2.44-5.4 5.46-5.4 3 0 5.56 2.4 5.56 5.4 7.54 3.6 24.25 11.16 36.78 15l4.87-36.24c-.7.48-1.4.84-2.2 1.2-.12.12-.35.12-.6.24-.68.36-1.38.6-2.07.96-.35.12-.58.24-.93.36-.8.24-1.63.48-2.44.84-.24 0-.36.12-.6.12-1.03.36-2.2.72-3.24.96-.34.12-.58.12-.92.24-.82.24-1.74.48-2.67.6-.35.12-.7.24-1.16.24l-3.12.72h-.58c-1.28.24-2.56.48-3.83.6-.35.12-.8.12-1.16.24l-3 .36c-.36 0-.82.12-1.17.12l-3.83.36h-.34l-4.18.36h-1.16c-1.04.12-2.1.12-3.25.12-.35 0-.8 0-1.16.12h-8.46c-.34-.12-.8-.12-1.16-.12-1.16 0-2.2 0-3.24-.12h-1.16l-4.18-.36h-.46l-3.72-.36c-.34 0-.8-.12-1.16-.12l-3-.36c-.36-.12-.82-.12-1.17-.24-1.3-.12-2.56-.36-3.84-.6-.23 0-.46 0-.58-.12-1.04-.12-2.1-.36-3.13-.6-.47 0-.8-.12-1.16-.24-.94-.12-1.75-.36-2.68-.6-.35-.12-.58-.12-.93-.24-1.05-.24-2.2-.6-3.26-.96-.23 0-.46-.12-.58-.12-.92-.36-1.62-.6-2.43-.84-.35-.12-.58-.24-.93-.36-.7-.36-1.4-.6-2.1-.96-.22-.12-.45-.12-.68-.24-.7-.36-1.4-.72-2.1-1.2l10.45 77.76c.1.12.1.24.1.36 0 2.52 14.05 8.52 37.25 8.52 8.7 0 17.4-.96 24.48-2.52 2.78-.72 5.22-1.44 7.3-2.16 4.53-1.8 5.57-3.48 5.57-3.84 0-.12 0-.24.12-.36zM414.53 245.4c-28.54 0-48.6 8.88-49.07 13.68l.12.6c0 .12.1.36.23.48.12.12.12.36.23.48l.47.48c.1.12.23.36.46.48.12.12.46.36.7.48.1.24.34.36.46.48.35.24.7.36 1.04.6.24.12.35.24.7.36.35.24.7.36 1.16.6.23.12.46.24.8.36.48.24.94.48 1.4.6.35.12.7.24.93.36.58.24 1.16.48 1.74.6l1.04.36c.58.24 1.16.36 1.85.6.34.12.7.24 1.15.36.7.12 1.4.24 2.1.48.34.12.8.24 1.27.24.7.24 1.5.36 2.2.48l1.4.36 2.54.36c.47.12.93.24 1.4.24.92.12 1.85.24 2.66.36.58.12 1.05.24 1.63.24.93.12 1.85.24 2.9.36.46 0 1.04.12 1.62.12.93.12 1.97.12 2.9.24.58 0 1.16.12 1.86.12 1.04.12 2.1.12 3.13.12.58.12 1.16.12 1.86.12 1.62 0 3.36.12 5.1.12 1.86 0 3.6-.12 5.22-.12.7 0 1.28 0 1.86-.12 1.04 0 2.08 0 3.13-.12.7 0 1.27-.12 1.85-.12 1.05-.12 1.98-.12 2.9-.24.58 0 1.16-.12 1.74-.12l2.8-.36c.57 0 1.03-.12 1.6-.24.94-.12 1.75-.24 2.56-.36.58 0 1.05-.12 1.63-.24.82-.12 1.63-.24 2.33-.36.58-.12 1.04-.24 1.5-.36.82-.12 1.5-.24 2.2-.48.47 0 .94-.12 1.4-.24.7-.24 1.4-.36 1.97-.48.47-.12.82-.36 1.28-.48.58-.12 1.16-.24 1.74-.48.46-.12.8-.24 1.16-.36.58-.24 1.04-.36 1.5-.6.47-.12.7-.24 1.05-.36.47-.24.93-.36 1.4-.6.34-.12.57-.24.92-.36.35-.24.7-.36 1.05-.6.34-.12.58-.24.8-.36.24-.24.6-.36.82-.6.23-.12.46-.24.7-.48.23-.12.46-.36.58-.48.23-.12.34-.36.46-.48l.46-.48c.12-.12.12-.36.24-.48.1-.12.23-.36.23-.48l.1-.6c-.46-4.8-20.53-13.68-49.18-13.68zm48.37 60.36c4.52 1.08 6.6.96 7.42.84-.47-.72-2.1-2.4-6.85-5.4z" stroke="#000" stroke-opacity="0" fill="#3f8624"/><use xlink:href="#p" transform="matrix(1,0,0,1,330,369) translate(26.599999999999994 14.4)"/><use xlink:href="#q" transform="matrix(1,0,0,1,330,369) translate(86.44999999999999 14.4)"/><use xlink:href="#r" transform="matrix(1,0,0,1,330,369) translate(5.574999999999989 36)"/><use xlink:href="#s" transform="matrix(1,0,0,1,330,369) translate(70.475 36)"/><use xlink:href="#t" transform="matrix(1,0,0,1,330,369) translate(97.475 36)"/><path d="M680-40h120V80H680V-40z" stroke="#000" stroke-opacity="0" fill="url(#u)"/><path d="M724.97-2.57h3.8v3.8h-3.8v18.63c0-.4.25-.9.58-1.24l5.62-5.6 2.64 2.63-4.28 4.3 4.3 4.28-2.65 2.63-5.62-5.6c-.33-.33-.58-.83-.58-1.32v18.7h3.8v3.8h-3.8v16.82c0 .66-.33 1.24-.9 1.65-.25.18-.58.26-1 .26-.24 0-.5-.08-.82-.16L699.8 49.7c-.67-.33-1.08-.9-1.08-1.65V-6.28c0-.65.33-1.3.9-1.64l22.55-13.1c.58-.34 1.32-.34 1.9 0 .57.32.9.98.9 1.64zm56.3-3.7v54.32c0 .74-.4 1.32-1.06 1.65L757.76 61c-.33.08-.58.16-.83.16-.4 0-.74-.08-1-.25-.56-.4-.9-.98-.9-1.64v-16.8h-3.8v-3.8h3.8V19.93c0 .5-.24 1-.57 1.32l-5.62 5.6-2.64-2.63 4.28-4.3-4.3-4.28 2.65-2.63 5.62 5.6c.33.33.58.82.58 1.24V1.23h-3.8v-3.8h3.8v-16.8c0-.67.33-1.33.9-1.66.58-.33 1.33-.33 1.9 0l22.54 13.1c.58.33.9 1 .9 1.65zm-60-9.9L702.42-5.2v52.1l18.83 9.3zm56.3 10.97l-18.83-10.97V56.2l18.83-9.3zm-32.04 16.4l-7.5 20.6-3.56-1.23 7.5-20.6zM732.5 1.23v-3.8h5.6v3.8zm9.4 0v-3.8h5.6v3.8zm-9.4 41.22v-3.8h5.6v3.8zm9.4 0v-3.8h5.6v3.8z" stroke="#000" stroke-opacity="0" fill="#fff"/><use xlink:href="#m" transform="matrix(1,0,0,1,650,89) translate(2.049999999999997 14.4)"/><use xlink:href="#v" transform="matrix(1,0,0,1,650,89) translate(73 14.4)"/><use xlink:href="#w" transform="matrix(1,0,0,1,650,89) translate(107 14.4)"/><path d="M440.5-47.54H594a6 6 0 0 1 6 6V14a6 6 0 0 0 6 6h57.62" stroke="#3a414a" fill="none"/><path d="M440.5-47.04h-.5v-1h.5z" stroke="#3a414a" stroke-width=".05" fill="#3a414a"/><path d="M678.38 20l-14.26 4.64v-9.28z" stroke="#3a414a" fill="#3a414a"/><path d="M722 380h120v120H722V380z" stroke="#000" stroke-opacity="0" fill="url(#x)"/><path d="M812.7 441.9v-18.84h-3.8v13.15h-3.12l-3.14 1.85c-1.57-2.53-4.13-4.53-7.02-5.38-2.56 1.15-5.6 1.08-8.17 0-4.96 1.46-8.42 5.92-8.75 11.08H790v3.76h-15.18c-1 0-1.9-.83-1.9-1.9v-22.55h-28.4V450c0 1.7 1.15 3.15 2.56 3.15h37.23v3.77H747.1c-3.55 0-6.36-3.15-6.36-6.92v-40.62c0-3.77 2.8-6.92 6.36-6.92h63.16c3.46 0 6.27 3.15 6.27 6.92v32.54zm.26 35.77c-2.4 1.07-5.04 1.7-7.68 1.7-.74 0-1.48-.1-2.14-.16-3.3-.38-6.44-1.7-9-3.7-4.96-3.9-7.52-10-6.77-16.22.74-5.92 4.37-11.07 9.66-13.76 3.22-1.62 6.85-2.3 10.4-1.85 5.94.7 11.14 4.3 13.87 9.6 1.65 3.25 2.3 6.78 1.82 10.32-.42 3.53-1.82 6.84-4.13 9.53-1.66 1.85-3.73 3.46-6.04 4.54zm-5.94-30.3c-.58 0-1.16-.1-1.74-.1-2.3 0-4.46.55-6.52 1.55-4.2 2.16-7.02 6.23-7.6 10.93-.57 4.92 1.4 9.7 5.3 12.84 2.05 1.6 4.53 2.6 7.1 2.9 2.63.32 5.36-.14 7.75-1.22 1.83-.84 3.48-2.15 4.8-3.6 1.8-2.17 2.97-4.7 3.3-7.55.33-2.77-.16-5.62-1.5-8.15-2.13-4.16-6.26-7-10.88-7.62zm5.7-28v-10c0-1.7-1.16-3.16-2.48-3.16h-63.16c-1.4 0-2.56 1.47-2.56 3.16v10h28.4v-7.54c0-1 .9-1.84 1.9-1.84h32.28c1 0 1.8.84 1.8 1.84v7.54zm-7.52-5.7h-28.48v23.23c1.8-3.3 4.78-6 8.5-7.46-1.16-1.46-1.73-3.23-1.73-5.08 0-4.7 3.78-8.46 8.5-8.46 4.7 0 8.5 3.77 8.5 8.46 0 2-.75 3.85-2 5.4 2.65 1.14 4.97 3 6.7 5.3zm-1.98 54.46c-.33.3-.83.54-1.32.54-.5 0-1-.23-1.4-.54l-5.3-5.3 2.73-2.62 3.97 3.93 9.16-9.15 2.73 2.7zm-6.52-43.77c0-2.6-2.07-4.7-4.7-4.7-2.65 0-4.8 2.1-4.8 4.7 0 1.62 1 3.23 2.48 4 1.4.77 3.14.77 4.62 0 1.5-.77 2.4-2.38 2.4-4zm-48.38 8.16v-3.77h17v3.77zm0 9.38v-3.77h11.4v3.77zm13.3 0v-3.77h5.6v3.77z" stroke="#000" stroke-opacity="0" fill="#fff"/><use xlink:href="#m" transform="matrix(1,0,0,1,692,509) translate(23.57499999999999 14.4)"/><use xlink:href="#y" transform="matrix(1,0,0,1,692,509) translate(94.52499999999999 14.4)"/><path d="M1440 200h120v120h-120V200z" stroke="#000" stroke-opacity="0" fill="url(#z)"/><path d="M1520.8 276.76c0 .4-.07.74-.07 1.07v11.23c0 6.77-12.22 12.22-27.16 12.22-12.97 0-26.07-3.55-27.15-10.32h-.14v-60.68c0-7.52 14.05-11.56 27.3-11.56 7.36 0 14.45 1.24 19.45 3.3l-1.42 3.47c-4.5-1.9-11.13-2.98-18.03-2.98-14.6 0-23.5 4.54-23.5 7.76 0 3.22 8.9 7.76 23.5 7.76h1.07l.15 3.7c-.4.1-.82.1-1.23.1-9.05 0-18.5-1.9-23.5-5.53v8.26c0 1 .87 2.15 2.5 3.22 3.78 2.4 10.47 4.05 17.9 4.38l-.14 3.8c-7.77-.34-14.52-2-18.9-4.55-.62.6-1.37 2-1.37 2.74 0 3.3 8.92 7.76 23.5 7.76 1.37 0 2.72 0 4.07-.08l.27 3.7c-1.42.18-2.9.18-4.33.18-9.05 0-18.5-1.9-23.5-5.45v6.85c0 1.07.87 2.23 2.5 3.3 4.25 2.73 12.3 4.46 21 4.46h.6v3.8h-.6c-8.98 0-18.5-1.9-23.5-4.8-.4.42-.28 1.08-.14 1.83.07.4.13.73.13 1.06 0 3.3 8.92 7.76 23.5 7.76 14.54 0 23.53-4.46 23.53-7.76 0-1.07-1.16-2.15-2.1-2.9-.75.5-1.56.92-2.58 1.33l-1.4-3.48c1-.4 1.88-.9 2.55-1.32 2.03-1.4 3.38-3.38 3.38-4.13h3.78c0 1.82-1.2 3.72-2.7 5.2 2.23 2 2.77 3.97 2.77 5.3zm12.5-29.97l-33.78 34.1c-.34.4-.88.57-1.35.57-.34 0-.68-.1-.95-.25-.74-.5-1.08-1.4-.8-2.23l8.57-25.94h-8.72c-.6 0-1.22-.32-1.56-.9-.34-.58-.4-1.24-.13-1.82l9.38-20.9c.34-.65.94-1.06 1.7-1.06h20.66c.6 0 1.22.33 1.56.83.33.5.4 1.16.2 1.74l-4.66 12.63h8.5c.75 0 1.5.4 1.76 1.16.27.66.14 1.48-.4 2.06zm-5.88.57h-6.7c-.66 0-1.2-.33-1.54-.83-.34-.5-.47-1.15-.2-1.73l4.66-12.62h-16.76l-7.63 17.1h8.3c.62 0 1.16.23 1.56.73.35.5.42 1.17.22 1.74l-6.83 20.8zm-10.47 35.58c-5.07 3.55-14.46 5.37-23.38 5.37-9.05 0-18.5-1.9-23.5-5.45v7.1c0 3.14 8.9 7.5 23.5 7.5 14.06 0 23.38-5.02 23.38-8.4zm-44.8-37.73l1.76-3.38c1.23.66 2.78 1.23 4.47 1.8l-1 3.65c-1.97-.6-3.73-1.34-5.2-2.08zm0 45.5l1.76-3.3c1.23.65 2.78 1.23 4.47 1.72l-1 3.64c-1.97-.58-3.73-1.24-5.2-2.07zm5.2-20.73c-1.95-.6-3.7-1.25-5.2-2l1.76-3.38c1.23.66 2.78 1.24 4.47 1.74z" stroke="#000" stroke-opacity="0" fill="#fff"/><use xlink:href="#m" transform="matrix(1,0,0,1,1410,329) translate(8.599999999999994 14.4)"/><use xlink:href="#A" transform="matrix(1,0,0,1,1410,329) translate(79.55 14.4)"/><path d="M1240 200h120v120h-120V200z" stroke="#000" stroke-opacity="0" fill="url(#B)"/><path d="M1337.47 280.64c1.02 0 1.9.83 1.9 1.9v16.84c0 1.07-.88 1.9-1.9 1.9h-19.9c-.8 0-1.43-.4-1.75-1.07l-28.18-60.84h-11.73c-.54 0-1-.17-1.33-.58-.4-.33-.55-.82-.55-1.32v-16.84c0-1.07.87-1.9 1.9-1.9h24.95c.7 0 1.33.4 1.65 1.07l28.02 60.84zm-1.8 16.93v-13.2h-6.3c-.72 0-1.35-.43-1.66-1.1l-28.02-60.83h-21.96v13.2h11.1c.8 0 1.42.42 1.73 1.08l28.18 60.84zm-49.3-45.66l10.64 22.05c.24.5.24 1.08 0 1.57l-11.56 24.7c-.32.65-1.03 1.06-1.74 1.06h-21.17c-.63 0-1.26-.33-1.58-.9-.4-.5-.4-1.16-.15-1.82l22.2-46.65c.3-.65.94-1.06 1.65-1.06.8 0 1.42.4 1.73 1.07zm-3.85 45.66l10.7-22.78-8.5-17.75-19.28 40.54z" stroke="#000" stroke-opacity="0" fill="#fff"/><use xlink:href="#C" transform="matrix(1,0,0,1,1210,329) translate(34.875 14.4)"/><use xlink:href="#D" transform="matrix(1,0,0,1,1210,329) translate(80.175 14.4)"/><path d="M1360.5 260h63.12" stroke="#3a414a" fill="none"/><path d="M1360.5 260.5h-.5v-1h.5z" stroke="#3a414a" stroke-width=".05" fill="#3a414a"/><path d="M1438.38 260l-14.26 4.63v-9.26z" stroke="#3a414a" fill="#3a414a"/><path d="M800.5 20H1154a6 6 0 0 1 6 6v206.67a6 6 0 0 0 6 6h57.62" stroke="#3a414a" fill="none"/><path d="M800.5 20.5h-.5v-1h.5z" stroke="#3a414a" stroke-width=".05" fill="#3a414a"/><path d="M1238.38 238.67l-14.26 4.63v-9.27z" stroke="#3a414a" fill="#3a414a"/><path d="M1755.88 266c.35 1.56-.1 3-1.04 4.08-1.16 1.44-3.02 2.04-5.68 2.04-1.86 0-4.18-.36-6.96-.96l-4.76 35.04c-.12 3.48-3.25 6.36-9.16 8.76-2.32.84-5 1.68-8 2.4-7.55 1.68-16.6 2.64-25.76 2.64-16.36 0-42.34-3.72-42.8-13.8l-11.6-85.56-.12-1.08v-.36c0-11.28 28.77-19.2 54.52-19.2 25.87 0 54.64 7.92 54.64 19.2v.36l-.12 1.08-4.76 34.8c7.43 4.2 11.02 7.44 11.6 10.56zm-23.9 39.72l4.88-36c-13-3.96-30.28-11.76-38.86-15.72-.8.36-1.74.72-2.78.72-3.02 0-5.46-2.52-5.46-5.52 0-3 2.44-5.4 5.46-5.4 3 0 5.56 2.4 5.56 5.4 7.54 3.6 24.25 11.16 36.78 15l4.87-36.24c-.7.48-1.4.84-2.2 1.2-.12.12-.35.12-.6.24-.68.36-1.38.6-2.07.96-.35.12-.58.24-.93.36-.8.24-1.63.48-2.44.84-.24 0-.36.12-.6.12-1.03.36-2.2.72-3.24.96-.34.12-.58.12-.92.24-.82.24-1.74.48-2.67.6-.35.12-.7.24-1.16.24l-3.12.72h-.58c-1.28.24-2.56.48-3.83.6-.35.12-.8.12-1.16.24l-3 .36c-.36 0-.82.12-1.17.12l-3.83.36h-.34l-4.18.36h-1.16c-1.04.12-2.1.12-3.25.12-.35 0-.8 0-1.16.12h-8.46c-.34-.12-.8-.12-1.16-.12-1.16 0-2.2 0-3.24-.12h-1.16l-4.18-.36h-.46l-3.72-.36c-.34 0-.8-.12-1.16-.12l-3-.36c-.36-.12-.82-.12-1.17-.24-1.3-.12-2.56-.36-3.84-.6-.23 0-.46 0-.58-.12-1.04-.12-2.1-.36-3.13-.6-.47 0-.8-.12-1.16-.24-.94-.12-1.75-.36-2.68-.6-.35-.12-.58-.12-.93-.24-1.05-.24-2.2-.6-3.26-.96-.23 0-.46-.12-.58-.12-.92-.36-1.62-.6-2.43-.84-.35-.12-.58-.24-.93-.36-.7-.36-1.4-.6-2.1-.96-.22-.12-.45-.12-.68-.24-.7-.36-1.4-.72-2.1-1.2l10.45 77.76c.1.12.1.24.1.36 0 2.52 14.05 8.52 37.25 8.52 8.7 0 17.4-.96 24.48-2.52 2.78-.72 5.22-1.44 7.3-2.16 4.53-1.8 5.57-3.48 5.57-3.84 0-.12 0-.24.12-.36zm-37.46-100.32c-28.54 0-48.6 8.88-49.07 13.68l.12.6c0 .12.1.36.23.48.12.12.12.36.23.48l.47.48c.1.12.23.36.46.48.12.12.46.36.7.48.1.24.34.36.46.48.35.24.7.36 1.04.6.24.12.35.24.7.36.35.24.7.36 1.16.6.23.12.46.24.8.36.48.24.94.48 1.4.6.35.12.7.24.93.36.58.24 1.16.48 1.74.6l1.04.36c.58.24 1.16.36 1.85.6.34.12.7.24 1.15.36.7.12 1.4.24 2.1.48.34.12.8.24 1.27.24.7.24 1.5.36 2.2.48l1.4.36 2.54.36c.47.12.93.24 1.4.24.92.12 1.85.24 2.66.36.58.12 1.05.24 1.63.24.93.12 1.85.24 2.9.36.46 0 1.04.12 1.62.12.93.12 1.97.12 2.9.24.58 0 1.16.12 1.86.12 1.04.12 2.1.12 3.13.12.58.12 1.16.12 1.86.12 1.62 0 3.36.12 5.1.12 1.86 0 3.6-.12 5.22-.12.7 0 1.28 0 1.86-.12 1.04 0 2.08 0 3.13-.12.7 0 1.27-.12 1.85-.12 1.05-.12 1.98-.12 2.9-.24.58 0 1.16-.12 1.74-.12l2.8-.36c.57 0 1.03-.12 1.6-.24.94-.12 1.75-.24 2.56-.36.58 0 1.05-.12 1.63-.24.82-.12 1.63-.24 2.33-.36.58-.12 1.04-.24 1.5-.36.82-.12 1.5-.24 2.2-.48.47 0 .94-.12 1.4-.24.7-.24 1.4-.36 1.97-.48.47-.12.82-.36 1.28-.48.58-.12 1.16-.24 1.74-.48.46-.12.8-.24 1.16-.36.58-.24 1.04-.36 1.5-.6.47-.12.7-.24 1.05-.36.47-.24.93-.36 1.4-.6.34-.12.57-.24.92-.36.35-.24.7-.36 1.05-.6.34-.12.58-.24.8-.36.24-.24.6-.36.82-.6.23-.12.46-.24.7-.48.23-.12.46-.36.58-.48.23-.12.34-.36.46-.48l.46-.48c.12-.12.12-.36.24-.48.1-.12.23-.36.23-.48l.1-.6c-.46-4.8-20.53-13.68-49.18-13.68zm48.37 60.36c4.52 1.08 6.6.96 7.42.84-.47-.72-2.1-2.4-6.85-5.4z" stroke="#000" stroke-opacity="0" fill="#3f8624"/><use xlink:href="#p" transform="matrix(1,0,0,1,1610,329) translate(26.599999999999994 14.4)"/><use xlink:href="#q" transform="matrix(1,0,0,1,1610,329) translate(86.44999999999999 14.4)"/><use xlink:href="#r" transform="matrix(1,0,0,1,1610,329) translate(5.574999999999989 36)"/><use xlink:href="#s" transform="matrix(1,0,0,1,1610,329) translate(70.475 36)"/><use xlink:href="#t" transform="matrix(1,0,0,1,1610,329) translate(97.475 36)"/><path d="M1300 320.5V384a6 6 0 0 0 6 6h382.52a6 6 0 0 0 6-6v-47.62" stroke="#3a414a" fill="none"/><path d="M1300.5 320.5h-1v-.5h1z" stroke="#3a414a" stroke-width=".05" fill="#3a414a"/><path d="M1694.52 321.62l4.63 14.26h-9.27z" stroke="#3a414a" fill="#3a414a"/><path d="M1040 520h120v120h-120V520z" stroke="#000" stroke-opacity="0" fill="url(#E)"/><path d="M1121.12 603.1c5.08 0 9.1 4.04 9.1 9.07 0 4.95-4.02 9-9.1 9-5 0-9.1-4.05-9.1-9 0-2.63 1.2-5.02 2.97-6.67l-5.25-8.74-.08.08h-17.5c-.64 0-1.3-.4-1.6-1l-8.72-15c-.4-.57-.4-1.23 0-1.8l8.55-14.76-4.84-8c-.9.33-1.86.5-2.9.5-5 0-9.12-4.04-9.12-9 0-5.02 4.12-9.06 9.12-9.06 5 0 9.1 4.04 9.1 9.07 0 2.54-1.12 4.94-2.98 6.58l5.25 8.66h15.64c.64 0 1.3.4 1.6 1l8.72 15c.3.57.3 1.23 0 1.8l-7.6 13.03 5.82 9.73c.96-.33 1.93-.5 2.9-.5zm-12.58-10.05l7.66-13.1-7.66-13.12h-15.24l-7.66 13.1 7.66 13.12zm-29.84 10.55l4.36 6.35h16.05v3.7h-17c-.65 0-1.22-.32-1.62-.82l-5.24-7.58c-.65.16-1.3.25-2.02.25-5 0-9.1-4.04-9.1-9.07 0-2.3.88-4.37 2.33-5.94l-5.57-9.65c-.32-.58-.32-1.24 0-1.82l8.95-15.33 3.23 1.8-8.4 14.44 4.85 8.24c1.14-.5 2.43-.74 3.72-.74 5 0 9.1 4.04 9.1 9 0 2.96-1.44 5.5-3.62 7.16zm56.93-33.88l5.4 9.3c.33.6.33 1.25 0 1.83l-7.73 13.35-3.3-1.9 7.25-12.36-5-8.5c-.73.17-1.53.34-2.34.34-5 0-9.1-4.04-9.1-9.07 0-2.38.97-4.6 2.58-6.25l-4.52-6.52h-16.04v-3.7h17c.65 0 1.22.32 1.62.82l5.08 7.33c1.05-.4 2.18-.66 3.4-.66 5 0 9.1 4.04 9.1 9 0 2.88-1.37 5.35-3.38 7zm-62.4 31.98c2.9 0 5.3-2.3 5.3-5.27 0-2.9-2.4-5.28-5.3-5.28s-5.33 2.4-5.33 5.28c0 2.97 2.42 5.27 5.32 5.27zm9.42-48.63c3 0 5.33-2.4 5.33-5.28 0-2.98-2.34-5.37-5.33-5.37-2.9 0-5.32 2.4-5.32 5.36 0 2.87 2.42 5.27 5.33 5.27zM1129.9 568c2.9 0 5.33-2.32 5.33-5.3 0-2.88-2.42-5.27-5.32-5.27-2.9 0-5.3 2.4-5.3 5.28 0 2.98 2.4 5.3 5.3 5.3zm-8.78 49.45c2.98 0 5.32-2.4 5.32-5.28 0-2.96-2.34-5.35-5.32-5.35-2.9 0-5.32 2.4-5.32 5.35 0 2.9 2.42 5.28 5.32 5.28z" stroke="#000" stroke-opacity="0" fill="#fff"/><use xlink:href="#m" transform="matrix(1,0,0,1,1010,649) translate(5.574999999999989 14.4)"/><use xlink:href="#F" transform="matrix(1,0,0,1,1010,649) translate(76.52499999999999 14.4)"/><path d="M1240 520h120v120h-120V520z" stroke="#000" stroke-opacity="0" fill="url(#G)"/><path d="M1337.47 600.64c1.02 0 1.9.83 1.9 1.9v16.84c0 1.07-.88 1.9-1.9 1.9h-19.9c-.8 0-1.43-.4-1.75-1.07l-28.18-60.84h-11.73c-.54 0-1-.16-1.33-.58-.4-.33-.55-.82-.55-1.32v-16.84c0-1.07.87-1.9 1.9-1.9h24.95c.7 0 1.33.4 1.65 1.07l28.02 60.84zm-1.8 16.93v-13.22h-6.3c-.72 0-1.35-.4-1.66-1.07l-28.02-60.85h-21.96v13.22h11.1c.8 0 1.42.4 1.73 1.07l28.18 60.85zm-49.3-45.66l10.64 22.05c.24.5.24 1.08 0 1.57l-11.56 24.7c-.32.65-1.03 1.06-1.74 1.06h-21.17c-.63 0-1.26-.33-1.58-.9-.4-.5-.4-1.16-.15-1.82l22.2-46.65c.3-.65.94-1.06 1.65-1.06.8 0 1.42.4 1.73 1.07zm-3.85 45.67l10.7-22.8-8.5-17.74-19.28 40.54z" stroke="#000" stroke-opacity="0" fill="#fff"/><use xlink:href="#C" transform="matrix(1,0,0,1,1210,649) translate(34.875 14.4)"/><use xlink:href="#D" transform="matrix(1,0,0,1,1210,649) translate(80.175 14.4)"/><path d="M1300 519.5V446a6 6 0 0 0-6-6h-24a6 6 0 0 1-6-6v-97.62" stroke="#3a414a" fill="none"/><path d="M1300.5 520h-1v-.5h1z" stroke="#3a414a" stroke-width=".05" fill="#3a414a"/><path d="M1264 321.62l4.63 14.26h-9.27z" stroke="#3a414a" fill="#3a414a"/><path d="M1160.5 580h63.12" stroke="#3a414a" fill="none"/><path d="M1160.5 580.5h-.5v-1h.5z" stroke="#3a414a" stroke-width=".05" fill="#3a414a"/><path d="M1238.38 580l-14.26 4.63v-9.26z" stroke="#3a414a" fill="#3a414a"/><path d="M1556 601.45v35.72c0 1.56-1.27 2.76-2.78 2.76h-43.15c-1.5 0-2.78-1.2-2.78-2.76v-35.72c0-.72.33-1.44.8-1.92.46-.48 1.16-.84 1.97-.84h6.84v-6.85c0-4.07 1.52-7.9 4.3-10.9 2.8-2.88 6.5-4.44 10.45-4.44h.1c8.02 0 14.63 6.96 14.63 15.48v6.7h6.84c.8 0 1.5.37 1.97.85.57.48.8 1.2.8 1.92zm-55.1-35.73v42.92c0 1.44-1.27 2.64-2.78 2.64h-33.64c-1.5 0-2.67-1.2-2.67-2.64v-42.92c0-1.56 1.17-2.76 2.68-2.76h33.64c1.5 0 2.8 1.2 2.8 2.76zm-60.55-22.66c-.46-.83-.46-1.9.12-2.75l13.7-19.05c.57-.72 1.38-1.2 2.3-1.2h49.66c.8 0 1.62.48 2.2 1.2l13.7 19.06c.57.85.68 1.93.22 2.76-.46.96-1.5 1.56-2.44 1.56h-77c-1.05 0-1.98-.6-2.45-1.56zm5.34 79.48h54.74v5.52h-57.53c-1.5 0-2.78-1.32-2.78-2.76v-73.96c0-1.44 1.28-2.64 2.8-2.64h76.9c1.5 0 2.66 1.2 2.66 2.64v23.85h-5.45v-21.1h-71.34zm104.85-18.34h-37.7l-.1 30.2h37.7zm-83.28 1.68h28.07v-37.4h-28.07zm-19.14-66.77h66.23l-9.74-13.54h-46.75zm74.24 59.6h18.44v-6.73c.13-5.5-4.05-10.07-9.15-10.07-2.44 0-4.76 1.08-6.5 2.88-1.74 1.8-2.78 4.32-2.78 7.08zm1.85 16.4c0-2.03.8-3.82 2.2-5.14 1.4-1.44 3.25-2.16 5.23-2.16 1.97 0 3.82.72 5.22 2.16 1.4 1.32 2.2 3.1 2.2 5.15 0 1.93-.8 3.85-2.2 5.17-.7.72-1.5 1.2-2.44 1.56v7.67h-5.57v-7.67c-2.67-1.08-4.64-3.72-4.64-6.72zm-52.66-34.75v-5.52h19.25v5.52zm0 9.47v-5.4h19.25v5.4zm0 9.6v-5.53h19.25v5.5zm58.23 15.7c0 .95.8 1.8 1.85 1.8.46 0 .92-.13 1.27-.5.35-.35.58-.83.58-1.3 0-.5-.23-.97-.58-1.33-.35-.37-.8-.6-1.27-.6s-.93.23-1.28.6c-.46.35-.58.83-.58 1.3z" stroke="#000" stroke-opacity="0" fill="#b0084d"/><path d="M1456 520h48.03c3.48-.24 4.06.72 5.22 2.64l12.65 17.52c.34.6.58.96.58 1.92v33.24l9.04 1.2c5.57.12 8.7 2.52 11.37 5.52 4.75 6.36 3 11.28 3.47 16.68h7.3c1.17.48 2.2.96 2.33 2.76V637c-.12 1.2-.23 2.4-2.55 3l-43.97-.12c-1.04-.36-2.2-.6-2.2-3v-8.76h-6.84l-56.84-.12c-1.74.12-3.25-.24-3.48-2.76l-.12-84 13.92-19.56c.46-.72 1.16-1.44 2.1-1.68z" stroke="#000" stroke-opacity="0" fill-opacity="0"/><use xlink:href="#H" transform="matrix(1,0,0,1,1410,649) translate(15.574999999999989 14.4)"/><use xlink:href="#I" transform="matrix(1,0,0,1,1410,649) translate(89.52499999999999 14.4)"/><use xlink:href="#J" transform="matrix(1,0,0,1,1410,649) translate(22.099999999999994 36)"/><use xlink:href="#K" transform="matrix(1,0,0,1,1410,649) translate(110.95 36)"/><path d="M1360.5 580h63.17" stroke="#3a414a" fill="none"/><path d="M1360.5 580.5h-.5v-1h.5z" stroke="#3a414a" stroke-width=".05" fill="#3a414a"/><path d="M1438.43 580l-14.26 4.63v-9.26z" stroke="#3a414a" fill="#3a414a"/><path d="M722 600h120v120H722V600z" stroke="#000" stroke-opacity="0" fill="url(#L)"/><path d="M819.47 680.64c1.02 0 1.9.83 1.9 1.9v16.84c0 1.07-.88 1.9-1.9 1.9h-19.92c-.78 0-1.4-.4-1.73-1.07l-28.18-60.84H757.9c-.54 0-1-.16-1.33-.58-.4-.33-.55-.82-.55-1.32v-16.84c0-1.07.87-1.9 1.9-1.9h24.95c.7 0 1.33.4 1.65 1.07l28.02 60.84zm-1.8 16.93v-13.22h-6.3c-.72 0-1.35-.4-1.66-1.07l-28.02-60.85h-21.96v13.22h11.1c.8 0 1.42.4 1.73 1.07l28.2 60.85zm-49.3-45.66l10.64 22.05c.25.5.25 1.08 0 1.57l-11.56 24.7c-.32.65-1.03 1.06-1.74 1.06h-21.17c-.63 0-1.26-.33-1.57-.9-.4-.5-.4-1.16-.16-1.82L765 651.9c.3-.65.94-1.06 1.65-1.06.8 0 1.42.4 1.73 1.07zm-3.85 45.67l10.7-22.8-8.5-17.74-19.28 40.54z" stroke="#000" stroke-opacity="0" fill="#fff"/><g><use xlink:href="#C" transform="matrix(1,0,0,1,692,729) translate(34.875 14.4)"/><use xlink:href="#D" transform="matrix(1,0,0,1,692,729) translate(80.175 14.4)"/></g><path d="M782 500.5v83.12" stroke="#3a414a" fill="none"/><path d="M782.5 500.5h-1v-.5h1z" stroke="#3a414a" stroke-width=".05" fill="#3a414a"/><path d="M782 598.38l-4.63-14.26h9.26z" stroke="#3a414a" fill="#3a414a"/><path d="M740 80.5V224a6 6 0 0 0 6 6h30a6 6 0 0 1 6 6v127.62" stroke="#3a414a" fill="none"/><path d="M740.5 80.5h-1V80h1z" stroke="#3a414a" stroke-width=".05" fill="#3a414a"/><path d="M782 378.38l-4.63-14.26h9.26z" stroke="#3a414a" fill="#3a414a"/><path d="M842.5 640H914a6 6 0 0 0 6-6V288.67a6 6 0 0 1 6-6h297.62" stroke="#3a414a" fill="none"/><path d="M842.5 640.5h-.5v-1h.5z" stroke="#3a414a" stroke-width=".05" fill="#3a414a"/><path d="M1238.38 282.67l-14.26 4.63v-9.27z" stroke="#3a414a" fill="#3a414a"/><path d="M842.5 680H954a6 6 0 0 1 6 6v68a6 6 0 0 0 6 6h328a6 6 0 0 0 6-6v-97.62" stroke="#3a414a" fill="none"/><path d="M842.5 680.5h-.5v-1h.5z" stroke="#3a414a" stroke-width=".05" fill="#3a414a"/><path d="M1300 641.62l4.63 14.26h-9.27z" stroke="#3a414a" fill="#3a414a"/><path d="M1440 20h120v120h-120V20z" stroke="#000" stroke-opacity="0" fill="url(#M)"/><path d="M1482.82 77.1c-2.58-1.14-4.28-3.8-4.28-6.68v-22.3c0-.8.5-1.47 1.2-1.8l20.58-7.52c.4-.08.88-.08 1.3 0l20.55 7.52c.72.33 1.2 1 1.2 1.8v22.3c0 2.9-1.7 5.53-4.27 6.7-3.46 1.56-9.5 3.46-18.14 3.46-8.63 0-14.68-1.9-18.14-3.47zm43.3 16.28c.65.24 1.05.9 1.05 1.65v11.22c0 .75-.4 1.4-1.05 1.74l-7.5 3.7c-.24.17-.56.17-.8.17-.33 0-.65 0-.9-.17l-6.6-3.3v7.27c0 .66-.4 1.32-1.05 1.65l-7.5 3.8c-.25.08-.5.16-.8.16-.33 0-.57-.08-.82-.17l-7.5-3.78c-.64-.33-1.04-1-1.04-1.65v-7.27l-6.6 3.3c-.25.17-.57.17-.9.17-.24 0-.56 0-.8-.17l-7.5-3.7c-.64-.34-1.05-1-1.05-1.75V95.03c0-.75.4-1.4 1.05-1.66l7.5-3.8c.56-.24 1.13-.24 1.7 0l7.4 3.8c.66.25 1.06.9 1.06 1.66v7.26l6.7-3.3c.48-.34 1.12-.34 1.6 0l6.7 3.3v-7.27c0-.75.4-1.4 1.05-1.66l7.43-3.8c.56-.24 1.13-.24 1.7 0zm15.16-20.73c0 9.58-20.8 14.78-40.32 14.78s-40.32-5.2-40.32-14.78c0-4.62 5-8.67 14.2-11.4l1.04 3.64c-7.1 2.06-11.53 5.1-11.53 7.75 0 5.2 15.64 10.98 36.6 10.98 20.98 0 36.62-5.78 36.62-10.98 0-2.64-4.43-5.7-11.53-7.76l1.05-3.64c9.18 2.72 14.18 6.77 14.18 11.4zm-23.7 1.07c1.28-.57 2.1-1.8 2.1-3.3V50.77l-16.87 6.1.02 19.9c7-.24 11.85-1.72 14.75-3.05zm-35.33-3.3c0 1.5.8 2.73 2.1 3.3 2.9 1.33 7.74 2.8 14.76 3.06v-19.9l-16.85-6.1zm18.7-27.82l-15.07 5.53 15.08 5.45 15.08-5.45zm-5.63 64.8v7.1l3.8 1.83v-7.02zm7.5 8.93l3.8-1.82v-7.1l-3.8 1.9zm-24.28-18.25v7.02l3.7 1.9v-7.1zm7.5 8.92l3.7-1.9v-7.02l-3.7 1.82zm26.13-8.92v7.02l3.7 1.9v-7.1zm7.5 8.92l3.7-1.9v-7.02l-3.7 1.82zm-35.56-13.63l-3.3 1.66 3.3 1.65 3.3-1.65zm33.7 0l-3.3 1.66 3.3 1.65 3.32-1.65zm-16.84 9.33l-3.3 1.66 3.3 1.65 3.3-1.64z" stroke="#000" stroke-opacity="0" fill="#fff"/><g><use xlink:href="#C" transform="matrix(1,0,0,1,1410,149) translate(36.4 14.4)"/><use xlink:href="#N" transform="matrix(1,0,0,1,1410,149) translate(81.69999999999999 14.4)"/></g><path d="M1560.5 80H1692a6 6 0 0 1 6 6v97.78" stroke="#3a414a" fill="none"/><path d="M1560.5 80.5h-.5v-1h.5z" stroke="#3a414a" stroke-width=".05" fill="#3a414a"/><path d="M1698 198.54l-4.63-14.26h9.27z" stroke="#3a414a" fill="#3a414a"/><path d="M1300 199.5V86a6 6 0 0 1 6-6h117.62" stroke="#3a414a" fill="none"/><path d="M1300.5 200h-1v-.5h1z" stroke="#3a414a" stroke-width=".05" fill="#3a414a"/><path d="M1438.38 80l-14.26 4.64v-9.28z" stroke="#3a414a" fill="#3a414a"/><defs><path fill="#232f3e" d="M205 0l-28-72H64L36 0H1l101-248h38L239 0h-34zm-38-99l-47-123c-12 45-31 82-46 123h93" id="O"/><path fill="#232f3e" d="M266 0h-40l-56-210L115 0H75L2-248h35L96-30l15-64 43-154h32l59 218 59-218h35" id="P"/><path fill="#232f3e" d="M185-189c-5-48-123-54-124 2 14 75 158 14 163 119 3 78-121 87-175 55-17-10-28-26-33-46l33-7c5 56 141 63 141-1 0-78-155-14-162-118-5-82 145-84 179-34 5 7 8 16 11 25" id="Q"/><g id="a"><use transform="matrix(0.05,0,0,0.05,0,0)" xlink:href="#O"/><use transform="matrix(0.05,0,0,0.05,11.35,0)" xlink:href="#P"/><use transform="matrix(0.05,0,0,0.05,28.299999999999997,0)" xlink:href="#Q"/></g><path fill="#232f3e" d="M212-179c-10-28-35-45-73-45-59 0-87 40-87 99 0 60 29 101 89 101 43 0 62-24 78-52l27 14C228-24 195 4 139 4 59 4 22-46 18-125c-6-104 99-153 187-111 19 9 31 26 39 46" id="R"/><path fill="#232f3e" d="M24 0v-261h32V0H24" id="S"/><path fill="#232f3e" d="M100-194c62-1 85 37 85 99 1 63-27 99-86 99S16-35 15-95c0-66 28-99 85-99zM99-20c44 1 53-31 53-75 0-43-8-75-51-75s-53 32-53 75 10 74 51 75" id="T"/><path fill="#232f3e" d="M84 4C-5 8 30-112 23-190h32v120c0 31 7 50 39 49 72-2 45-101 50-169h31l1 190h-30c-1-10 1-25-2-33-11 22-28 36-60 37" id="U"/><path fill="#232f3e" d="M85-194c31 0 48 13 60 33l-1-100h32l1 261h-30c-2-10 0-23-3-31C134-8 116 4 85 4 32 4 16-35 15-94c0-66 23-100 70-100zm9 24c-40 0-46 34-46 75 0 40 6 74 45 74 42 0 51-32 51-76 0-42-9-74-50-73" id="V"/><g id="b"><use transform="matrix(0.05,0,0,0.05,0,0)" xlink:href="#R"/><use transform="matrix(0.05,0,0,0.05,12.950000000000001,0)" xlink:href="#S"/><use transform="matrix(0.05,0,0,0.05,16.900000000000002,0)" xlink:href="#T"/><use transform="matrix(0.05,0,0,0.05,26.900000000000002,0)" xlink:href="#U"/><use transform="matrix(0.05,0,0,0.05,36.900000000000006,0)" xlink:href="#V"/></g><path fill="#5a6c86" d="M63-220v92h138v28H63V0H30v-248h175v28H63" id="W"/><path fill="#5a6c86" d="M114-163C36-179 61-72 57 0H25l-1-190h30c1 12-1 29 2 39 6-27 23-49 58-41v29" id="X"/><path fill="#5a6c86" d="M100-194c62-1 85 37 85 99 1 63-27 99-86 99S16-35 15-95c0-66 28-99 85-99zM99-20c44 1 53-31 53-75 0-43-8-75-51-75s-53 32-53 75 10 74 51 75" id="Y"/><path fill="#5a6c86" d="M117-194c89-4 53 116 60 194h-32v-121c0-31-8-49-39-48C34-167 62-67 57 0H25l-1-190h30c1 10-1 24 2 32 11-22 29-35 61-36" id="Z"/><path fill="#5a6c86" d="M59-47c-2 24 18 29 38 22v24C64 9 27 4 27-40v-127H5v-23h24l9-43h21v43h35v23H59v120" id="aa"/><path fill="#5a6c86" d="M100-194c63 0 86 42 84 106H49c0 40 14 67 53 68 26 1 43-12 49-29l28 8c-11 28-37 45-77 45C44 4 14-33 15-96c1-61 26-98 85-98zm52 81c6-60-76-77-97-28-3 7-6 17-6 28h103" id="ab"/><path fill="#5a6c86" d="M85-194c31 0 48 13 60 33l-1-100h32l1 261h-30c-2-10 0-23-3-31C134-8 116 4 85 4 32 4 16-35 15-94c0-66 23-100 70-100zm9 24c-40 0-46 34-46 75 0 40 6 74 45 74 42 0 51-32 51-76 0-42-9-74-50-73" id="ac"/><g id="c"><use transform="matrix(0.05,0,0,0.05,0,0)" xlink:href="#W"/><use transform="matrix(0.05,0,0,0.05,10.950000000000001,0)" xlink:href="#X"/><use transform="matrix(0.05,0,0,0.05,16.900000000000002,0)" xlink:href="#Y"/><use transform="matrix(0.05,0,0,0.05,26.900000000000002,0)" xlink:href="#Z"/><use transform="matrix(0.05,0,0,0.05,36.900000000000006,0)" xlink:href="#aa"/><use transform="matrix(0.05,0,0,0.05,41.900000000000006,0)" xlink:href="#ab"/><use transform="matrix(0.05,0,0,0.05,51.900000000000006,0)" xlink:href="#Z"/><use transform="matrix(0.05,0,0,0.05,61.900000000000006,0)" xlink:href="#ac"/></g><path fill="#5a6c86" d="M160-131c35 5 61 23 61 61C221 17 115-2 30 0v-248c76 3 177-17 177 60 0 33-19 50-47 57zm-97-11c50-1 110 9 110-42 0-47-63-36-110-37v79zm0 115c55-2 124 14 124-45 0-56-70-42-124-44v89" id="ad"/><path fill="#5a6c86" d="M141-36C126-15 110 5 73 4 37 3 15-17 15-53c-1-64 63-63 125-63 3-35-9-54-41-54-24 1-41 7-42 31l-33-3c5-37 33-52 76-52 45 0 72 20 72 64v82c-1 20 7 32 28 27v20c-31 9-61-2-59-35zM48-53c0 20 12 33 32 33 41-3 63-29 60-74-43 2-92-5-92 41" id="ae"/><path fill="#5a6c86" d="M96-169c-40 0-48 33-48 73s9 75 48 75c24 0 41-14 43-38l32 2c-6 37-31 61-74 61-59 0-76-41-82-99-10-93 101-131 147-64 4 7 5 14 7 22l-32 3c-4-21-16-35-41-35" id="af"/><path fill="#5a6c86" d="M143 0L79-87 56-68V0H24v-261h32v163l83-92h37l-77 82L181 0h-38" id="ag"/><g id="d"><use transform="matrix(0.05,0,0,0.05,0,0)" xlink:href="#ad"/><use transform="matrix(0.05,0,0,0.05,12,0)" xlink:href="#ae"/><use transform="matrix(0.05,0,0,0.05,22,0)" xlink:href="#af"/><use transform="matrix(0.05,0,0,0.05,31,0)" xlink:href="#ag"/><use transform="matrix(0.05,0,0,0.05,40,0)" xlink:href="#ab"/><use transform="matrix(0.05,0,0,0.05,50,0)" xlink:href="#Z"/><use transform="matrix(0.05,0,0,0.05,60,0)" xlink:href="#ac"/></g><path fill="#5a6c86" d="M185-189c-5-48-123-54-124 2 14 75 158 14 163 119 3 78-121 87-175 55-17-10-28-26-33-46l33-7c5 56 141 63 141-1 0-78-155-14-162-118-5-82 145-84 179-34 5 7 8 16 11 25" id="ah"/><path fill="#5a6c86" d="M177-190C167-65 218 103 67 71c-23-6-38-20-44-43l32-5c15 47 100 32 89-28v-30C133-14 115 1 83 1 29 1 15-40 15-95c0-56 16-97 71-98 29-1 48 16 59 35 1-10 0-23 2-32h30zM94-22c36 0 50-32 50-73 0-42-14-75-50-75-39 0-46 34-46 75s6 73 46 73" id="ai"/><g id="e"><use transform="matrix(0.05,0,0,0.05,0,0)" xlink:href="#ah"/><use transform="matrix(0.05,0,0,0.05,12,0)" xlink:href="#Y"/><use transform="matrix(0.05,0,0,0.05,22,0)" xlink:href="#Z"/><use transform="matrix(0.05,0,0,0.05,32,0)" xlink:href="#ai"/></g><path fill="#5a6c86" d="M240 0l2-218c-23 76-54 145-80 218h-23L58-218 59 0H30v-248h44l77 211c21-75 51-140 76-211h43V0h-30" id="aj"/><path fill="#5a6c86" d="M210-169c-67 3-38 105-44 169h-31v-121c0-29-5-50-35-48C34-165 62-65 56 0H25l-1-190h30c1 10-1 24 2 32 10-44 99-50 107 0 11-21 27-35 58-36 85-2 47 119 55 194h-31v-121c0-29-5-49-35-48" id="ak"/><g id="f"><use transform="matrix(0.05,0,0,0.05,0,0)" xlink:href="#aj"/><use transform="matrix(0.05,0,0,0.05,14.950000000000001,0)" xlink:href="#ae"/><use transform="matrix(0.05,0,0,0.05,24.950000000000003,0)" xlink:href="#Z"/><use transform="matrix(0.05,0,0,0.05,34.95,0)" xlink:href="#ae"/><use transform="matrix(0.05,0,0,0.05,44.95,0)" xlink:href="#ai"/><use transform="matrix(0.05,0,0,0.05,54.95,0)" xlink:href="#ab"/><use transform="matrix(0.05,0,0,0.05,64.95,0)" xlink:href="#ak"/><use transform="matrix(0.05,0,0,0.05,79.9,0)" xlink:href="#ab"/><use transform="matrix(0.05,0,0,0.05,89.9,0)" xlink:href="#Z"/><use transform="matrix(0.05,0,0,0.05,99.9,0)" xlink:href="#aa"/></g><path fill="#5a6c86" d="M108 0H70L1-190h34L89-25l56-165h34" id="al"/><path fill="#5a6c86" d="M24-231v-30h32v30H24zM24 0v-190h32V0H24" id="am"/><g id="g"><use transform="matrix(0.05,0,0,0.05,0,0)" xlink:href="#ah"/><use transform="matrix(0.05,0,0,0.05,12,0)" xlink:href="#ab"/><use transform="matrix(0.05,0,0,0.05,22,0)" xlink:href="#X"/><use transform="matrix(0.05,0,0,0.05,27.950000000000003,0)" xlink:href="#al"/><use transform="matrix(0.05,0,0,0.05,36.95,0)" xlink:href="#am"/><use transform="matrix(0.05,0,0,0.05,40.900000000000006,0)" xlink:href="#af"/><use transform="matrix(0.05,0,0,0.05,49.900000000000006,0)" xlink:href="#ab"/></g><path fill="#5a6c86" d="M212-179c-10-28-35-45-73-45-59 0-87 40-87 99 0 60 29 101 89 101 43 0 62-24 78-52l27 14C228-24 195 4 139 4 59 4 22-46 18-125c-6-104 99-153 187-111 19 9 31 26 39 46" id="an"/><g id="h"><use transform="matrix(0.05,0,0,0.05,0,0)" xlink:href="#an"/><use transform="matrix(0.05,0,0,0.05,12.950000000000001,0)" xlink:href="#Y"/><use transform="matrix(0.05,0,0,0.05,22.950000000000003,0)" xlink:href="#Z"/><use transform="matrix(0.05,0,0,0.05,32.95,0)" xlink:href="#aa"/><use transform="matrix(0.05,0,0,0.05,37.95,0)" xlink:href="#ab"/><use transform="matrix(0.05,0,0,0.05,47.95,0)" xlink:href="#Z"/><use transform="matrix(0.05,0,0,0.05,57.95,0)" xlink:href="#aa"/></g><g id="i"><use transform="matrix(0.05,0,0,0.05,0,0)" xlink:href="#ah"/><use transform="matrix(0.05,0,0,0.05,12,0)" xlink:href="#aa"/><use transform="matrix(0.05,0,0,0.05,17,0)" xlink:href="#X"/><use transform="matrix(0.05,0,0,0.05,22.95,0)" xlink:href="#ab"/><use transform="matrix(0.05,0,0,0.05,32.95,0)" xlink:href="#ae"/><use transform="matrix(0.05,0,0,0.05,42.95,0)" xlink:href="#ak"/></g><path fill="#5a6c86" d="M205 0l-28-72H64L36 0H1l101-248h38L239 0h-34zm-38-99l-47-123c-12 45-31 82-46 123h93" id="ao"/><g id="j"><use transform="matrix(0.05,0,0,0.05,0,0)" xlink:href="#ao"/><use transform="matrix(0.05,0,0,0.05,12,0)" xlink:href="#ac"/><use transform="matrix(0.05,0,0,0.05,22,0)" xlink:href="#ak"/><use transform="matrix(0.05,0,0,0.05,36.95,0)" xlink:href="#am"/><use transform="matrix(0.05,0,0,0.05,40.900000000000006,0)" xlink:href="#Z"/></g><path fill="#5a6c86" d="M30-248c87 1 191-15 191 75 0 78-77 80-158 76V0H30v-248zm33 125c57 0 124 11 124-50 0-59-68-47-124-48v98" id="ap"/><path fill="#5a6c86" d="M24 0v-261h32V0H24" id="aq"/><g id="k"><use transform="matrix(0.05,0,0,0.05,0,0)" xlink:href="#ap"/><use transform="matrix(0.05,0,0,0.05,12,0)" xlink:href="#ae"/><use transform="matrix(0.05,0,0,0.05,22,0)" xlink:href="#Z"/><use transform="matrix(0.05,0,0,0.05,32,0)" xlink:href="#ab"/><use transform="matrix(0.05,0,0,0.05,42,0)" xlink:href="#aq"/></g><linearGradient gradientUnits="userSpaceOnUse" id="l" x1="320" y1="40" x2="440" y2="-80"><stop offset="0%" stop-color="#4d27a8"/><stop offset="100%" stop-color="#a166ff"/></linearGradient><path d="M205 0l-28-72H64L36 0H1l101-248h38L239 0h-34zm-38-99l-47-123c-12 45-31 82-46 123h93" id="ar"/><path d="M210-169c-67 3-38 105-44 169h-31v-121c0-29-5-50-35-48C34-165 62-65 56 0H25l-1-190h30c1 10-1 24 2 32 10-44 99-50 107 0 11-21 27-35 58-36 85-2 47 119 55 194h-31v-121c0-29-5-49-35-48" id="as"/><path d="M141-36C126-15 110 5 73 4 37 3 15-17 15-53c-1-64 63-63 125-63 3-35-9-54-41-54-24 1-41 7-42 31l-33-3c5-37 33-52 76-52 45 0 72 20 72 64v82c-1 20 7 32 28 27v20c-31 9-61-2-59-35zM48-53c0 20 12 33 32 33 41-3 63-29 60-74-43 2-92-5-92 41" id="at"/><path d="M9 0v-24l116-142H16v-24h144v24L44-24h123V0H9" id="au"/><path d="M100-194c62-1 85 37 85 99 1 63-27 99-86 99S16-35 15-95c0-66 28-99 85-99zM99-20c44 1 53-31 53-75 0-43-8-75-51-75s-53 32-53 75 10 74 51 75" id="av"/><path d="M117-194c89-4 53 116 60 194h-32v-121c0-31-8-49-39-48C34-167 62-67 57 0H25l-1-190h30c1 10-1 24 2 32 11-22 29-35 61-36" id="aw"/><g id="m"><use transform="matrix(0.05,0,0,0.05,0,0)" xlink:href="#ar"/><use transform="matrix(0.05,0,0,0.05,12,0)" xlink:href="#as"/><use transform="matrix(0.05,0,0,0.05,26.950000000000003,0)" xlink:href="#at"/><use transform="matrix(0.05,0,0,0.05,36.95,0)" xlink:href="#au"/><use transform="matrix(0.05,0,0,0.05,45.95,0)" xlink:href="#av"/><use transform="matrix(0.05,0,0,0.05,55.95,0)" xlink:href="#aw"/></g><path d="M212-179c-10-28-35-45-73-45-59 0-87 40-87 99 0 60 29 101 89 101 43 0 62-24 78-52l27 14C228-24 195 4 139 4 59 4 22-46 18-125c-6-104 99-153 187-111 19 9 31 26 39 46" id="ax"/><path d="M24 0v-261h32V0H24" id="ay"/><path d="M84 4C-5 8 30-112 23-190h32v120c0 31 7 50 39 49 72-2 45-101 50-169h31l1 190h-30c-1-10 1-25-2-33-11 22-28 36-60 37" id="az"/><path d="M85-194c31 0 48 13 60 33l-1-100h32l1 261h-30c-2-10 0-23-3-31C134-8 116 4 85 4 32 4 16-35 15-94c0-66 23-100 70-100zm9 24c-40 0-46 34-46 75 0 40 6 74 45 74 42 0 51-32 51-76 0-42-9-74-50-73" id="aA"/><path d="M63-220v92h138v28H63V0H30v-248h175v28H63" id="aB"/><path d="M114-163C36-179 61-72 57 0H25l-1-190h30c1 12-1 29 2 39 6-27 23-49 58-41v29" id="aC"/><path d="M59-47c-2 24 18 29 38 22v24C64 9 27 4 27-40v-127H5v-23h24l9-43h21v43h35v23H59v120" id="aD"/><g id="n"><use transform="matrix(0.05,0,0,0.05,0,0)" xlink:href="#ax"/><use transform="matrix(0.05,0,0,0.05,12.950000000000001,0)" xlink:href="#ay"/><use transform="matrix(0.05,0,0,0.05,16.900000000000002,0)" xlink:href="#av"/><use transform="matrix(0.05,0,0,0.05,26.900000000000002,0)" xlink:href="#az"/><use transform="matrix(0.05,0,0,0.05,36.900000000000006,0)" xlink:href="#aA"/><use transform="matrix(0.05,0,0,0.05,46.900000000000006,0)" xlink:href="#aB"/><use transform="matrix(0.05,0,0,0.05,57.85,0)" xlink:href="#aC"/><use transform="matrix(0.05,0,0,0.05,63.80000000000001,0)" xlink:href="#av"/><use transform="matrix(0.05,0,0,0.05,73.80000000000001,0)" xlink:href="#aw"/><use transform="matrix(0.05,0,0,0.05,83.80000000000001,0)" xlink:href="#aD"/></g><path d="M232-93c-1 65-40 97-104 97C67 4 28-28 28-90v-158h33c8 89-33 224 67 224 102 0 64-133 71-224h33v155" id="aE"/><path d="M135-143c-3-34-86-38-87 0 15 53 115 12 119 90S17 21 10-45l28-5c4 36 97 45 98 0-10-56-113-15-118-90-4-57 82-63 122-42 12 7 21 19 24 35" id="aF"/><path d="M100-194c63 0 86 42 84 106H49c0 40 14 67 53 68 26 1 43-12 49-29l28 8c-11 28-37 45-77 45C44 4 14-33 15-96c1-61 26-98 85-98zm52 81c6-60-76-77-97-28-3 7-6 17-6 28h103" id="aG"/><g id="o"><use transform="matrix(0.05,0,0,0.05,0,0)" xlink:href="#aE"/><use transform="matrix(0.05,0,0,0.05,12.950000000000001,0)" xlink:href="#aF"/><use transform="matrix(0.05,0,0,0.05,21.950000000000003,0)" xlink:href="#aG"/><use transform="matrix(0.05,0,0,0.05,31.950000000000003,0)" xlink:href="#aC"/></g><path d="M185-189c-5-48-123-54-124 2 14 75 158 14 163 119 3 78-121 87-175 55-17-10-28-26-33-46l33-7c5 56 141 63 141-1 0-78-155-14-162-118-5-82 145-84 179-34 5 7 8 16 11 25" id="aH"/><path d="M24-231v-30h32v30H24zM24 0v-190h32V0H24" id="aI"/><path d="M115-194c55 1 70 41 70 98S169 2 115 4C84 4 66-9 55-30l1 105H24l-1-265h31l2 30c10-21 28-34 59-34zm-8 174c40 0 45-34 45-75s-6-73-45-74c-42 0-51 32-51 76 0 43 10 73 51 73" id="aJ"/><g id="p"><use transform="matrix(0.05,0,0,0.05,0,0)" xlink:href="#aH"/><use transform="matrix(0.05,0,0,0.05,12,0)" xlink:href="#aI"/><use transform="matrix(0.05,0,0,0.05,15.949999999999998,0)" xlink:href="#as"/><use transform="matrix(0.05,0,0,0.05,30.899999999999995,0)" xlink:href="#aJ"/><use transform="matrix(0.05,0,0,0.05,40.9,0)" xlink:href="#ay"/><use transform="matrix(0.05,0,0,0.05,44.85,0)" xlink:href="#aG"/></g><path d="M177-190C167-65 218 103 67 71c-23-6-38-20-44-43l32-5c15 47 100 32 89-28v-30C133-14 115 1 83 1 29 1 15-40 15-95c0-56 16-97 71-98 29-1 48 16 59 35 1-10 0-23 2-32h30zM94-22c36 0 50-32 50-73 0-42-14-75-50-75-39 0-46 34-46 75s6 73 46 73" id="aK"/><g id="q"><use transform="matrix(0.05,0,0,0.05,0,0)" xlink:href="#aH"/><use transform="matrix(0.05,0,0,0.05,12,0)" xlink:href="#aD"/><use transform="matrix(0.05,0,0,0.05,17,0)" xlink:href="#av"/><use transform="matrix(0.05,0,0,0.05,27,0)" xlink:href="#aC"/><use transform="matrix(0.05,0,0,0.05,32.95,0)" xlink:href="#at"/><use transform="matrix(0.05,0,0,0.05,42.95,0)" xlink:href="#aK"/><use transform="matrix(0.05,0,0,0.05,52.95,0)" xlink:href="#aG"/></g><path d="M108 0H70L1-190h34L89-25l56-165h34" id="aL"/><path d="M96-169c-40 0-48 33-48 73s9 75 48 75c24 0 41-14 43-38l32 2c-6 37-31 61-74 61-59 0-76-41-82-99-10-93 101-131 147-64 4 7 5 14 7 22l-32 3c-4-21-16-35-41-35" id="aM"/><g id="r"><use transform="matrix(0.05,0,0,0.05,0,0)" xlink:href="#aH"/><use transform="matrix(0.05,0,0,0.05,12,0)" xlink:href="#aG"/><use transform="matrix(0.05,0,0,0.05,22,0)" xlink:href="#aC"/><use transform="matrix(0.05,0,0,0.05,27.950000000000003,0)" xlink:href="#aL"/><use transform="matrix(0.05,0,0,0.05,36.95,0)" xlink:href="#aI"/><use transform="matrix(0.05,0,0,0.05,40.900000000000006,0)" xlink:href="#aM"/><use transform="matrix(0.05,0,0,0.05,49.900000000000006,0)" xlink:href="#aG"/></g><path d="M126-127c33 6 58 20 58 59 0 88-139 92-164 29-3-8-5-16-6-25l32-3c6 27 21 44 54 44 32 0 52-15 52-46 0-38-36-46-79-43v-28c39 1 72-4 72-42 0-27-17-43-46-43-28 0-47 15-49 41l-32-3c6-42 35-63 81-64 48-1 79 21 79 65 0 36-21 52-52 59" id="aN"/><g id="s"><use transform="matrix(0.05,0,0,0.05,0,0)" xlink:href="#aH"/><use transform="matrix(0.05,0,0,0.05,12,0)" xlink:href="#aN"/></g><g id="t"><use transform="matrix(0.05,0,0,0.05,0,0)" xlink:href="#aH"/><use transform="matrix(0.05,0,0,0.05,12,0)" xlink:href="#aD"/><use transform="matrix(0.05,0,0,0.05,17,0)" xlink:href="#at"/><use transform="matrix(0.05,0,0,0.05,27,0)" xlink:href="#aw"/><use transform="matrix(0.05,0,0,0.05,37,0)" xlink:href="#aA"/><use transform="matrix(0.05,0,0,0.05,47,0)" xlink:href="#at"/><use transform="matrix(0.05,0,0,0.05,57,0)" xlink:href="#aC"/><use transform="matrix(0.05,0,0,0.05,62.95,0)" xlink:href="#aA"/></g><linearGradient gradientUnits="userSpaceOnUse" id="u" x1="680" y1="80" x2="800" y2="-40"><stop offset="0%" stop-color="#b0084d"/><stop offset="100%" stop-color="#ff4f8b"/></linearGradient><path d="M30-248c87 1 191-15 191 75 0 78-77 80-158 76V0H30v-248zm33 125c57 0 124 11 124-50 0-59-68-47-124-48v98" id="aO"/><path d="M33 0v-248h34V0H33" id="aP"/><g id="v"><use transform="matrix(0.05,0,0,0.05,0,0)" xlink:href="#ar"/><use transform="matrix(0.05,0,0,0.05,12,0)" xlink:href="#aO"/><use transform="matrix(0.05,0,0,0.05,24,0)" xlink:href="#aP"/></g><path d="M143 4C61 4 22-44 18-125c-5-107 100-154 193-111 17 8 29 25 37 43l-32 9c-13-25-37-40-76-40-61 0-88 39-88 99 0 61 29 100 91 101 35 0 62-11 79-27v-45h-74v-28h105v86C228-13 192 4 143 4" id="aQ"/><path d="M206 0h-36l-40-164L89 0H53L-1-190h32L70-26l43-164h34l41 164 42-164h31" id="aR"/><path d="M179-190L93 31C79 59 56 82 12 73V49c39 6 53-20 64-50L1-190h34L92-34l54-156h33" id="aS"/><g id="w"><use transform="matrix(0.05,0,0,0.05,0,0)" xlink:href="#aQ"/><use transform="matrix(0.05,0,0,0.05,14,0)" xlink:href="#at"/><use transform="matrix(0.05,0,0,0.05,24,0)" xlink:href="#aD"/><use transform="matrix(0.05,0,0,0.05,29,0)" xlink:href="#aG"/><use transform="matrix(0.05,0,0,0.05,39,0)" xlink:href="#aR"/><use transform="matrix(0.05,0,0,0.05,51.95,0)" xlink:href="#at"/><use transform="matrix(0.05,0,0,0.05,61.95,0)" xlink:href="#aS"/></g><linearGradient gradientUnits="userSpaceOnUse" id="x" x1="722" y1="500" x2="842" y2="380"><stop offset="0%" stop-color="#bd0816"/><stop offset="100%" stop-color="#ff5252"/></linearGradient><g id="y"><use transform="matrix(0.05,0,0,0.05,0,0)" xlink:href="#ax"/><use transform="matrix(0.05,0,0,0.05,12.950000000000001,0)" xlink:href="#av"/><use transform="matrix(0.05,0,0,0.05,22.950000000000003,0)" xlink:href="#aK"/><use transform="matrix(0.05,0,0,0.05,32.95,0)" xlink:href="#aw"/><use transform="matrix(0.05,0,0,0.05,42.95,0)" xlink:href="#aI"/><use transform="matrix(0.05,0,0,0.05,46.900000000000006,0)" xlink:href="#aD"/><use transform="matrix(0.05,0,0,0.05,51.900000000000006,0)" xlink:href="#av"/></g><linearGradient gradientUnits="userSpaceOnUse" id="z" x1="1440" y1="320" x2="1560" y2="200"><stop offset="0%" stop-color="#2e27ad"/><stop offset="100%" stop-color="#527fff"/></linearGradient><path d="M30-248c118-7 216 8 213 122C240-48 200 0 122 0H30v-248zM63-27c89 8 146-16 146-99s-60-101-146-95v194" id="aT"/><path d="M160-131c35 5 61 23 61 61C221 17 115-2 30 0v-248c76 3 177-17 177 60 0 33-19 50-47 57zm-97-11c50-1 110 9 110-42 0-47-63-36-110-37v79zm0 115c55-2 124 14 124-45 0-56-70-42-124-44v89" id="aU"/><g id="A"><use transform="matrix(0.05,0,0,0.05,0,0)" xlink:href="#aT"/><use transform="matrix(0.05,0,0,0.05,12.950000000000001,0)" xlink:href="#aS"/><use transform="matrix(0.05,0,0,0.05,21.950000000000003,0)" xlink:href="#aw"/><use transform="matrix(0.05,0,0,0.05,31.950000000000003,0)" xlink:href="#at"/><use transform="matrix(0.05,0,0,0.05,41.95,0)" xlink:href="#as"/><use transform="matrix(0.05,0,0,0.05,56.900000000000006,0)" xlink:href="#av"/><use transform="matrix(0.05,0,0,0.05,66.9,0)" xlink:href="#aT"/><use transform="matrix(0.05,0,0,0.05,79.85000000000001,0)" xlink:href="#aU"/></g><linearGradient gradientUnits="userSpaceOnUse" id="B" x1="1240" y1="320" x2="1360" y2="200"><stop offset="0%" stop-color="#c8511b"/><stop offset="100%" stop-color="#f90"/></linearGradient><path d="M266 0h-40l-56-210L115 0H75L2-248h35L96-30l15-64 43-154h32l59 218 59-218h35" id="aV"/><g id="C"><use transform="matrix(0.05,0,0,0.05,0,0)" xlink:href="#ar"/><use transform="matrix(0.05,0,0,0.05,11.35,0)" xlink:href="#aV"/><use transform="matrix(0.05,0,0,0.05,28.299999999999997,0)" xlink:href="#aH"/></g><path d="M30 0v-248h33v221h125V0H30" id="aW"/><path d="M115-194c53 0 69 39 70 98 0 66-23 100-70 100C84 3 66-7 56-30L54 0H23l1-261h32v101c10-23 28-34 59-34zm-8 174c40 0 45-34 45-75 0-40-5-75-45-74-42 0-51 32-51 76 0 43 10 73 51 73" id="aX"/><g id="D"><use transform="matrix(0.05,0,0,0.05,0,0)" xlink:href="#aW"/><use transform="matrix(0.05,0,0,0.05,10,0)" xlink:href="#at"/><use transform="matrix(0.05,0,0,0.05,20,0)" xlink:href="#as"/><use transform="matrix(0.05,0,0,0.05,34.95,0)" xlink:href="#aX"/><use transform="matrix(0.05,0,0,0.05,44.95,0)" xlink:href="#aA"/><use transform="matrix(0.05,0,0,0.05,54.95,0)" xlink:href="#at"/></g><linearGradient gradientUnits="userSpaceOnUse" id="E" x1="1040" y1="640" x2="1160" y2="520"><stop offset="0%" stop-color="#b0084d"/><stop offset="100%" stop-color="#ff4f8b"/></linearGradient><path d="M30 0v-248h187v28H63v79h144v27H63v87h162V0H30" id="aY"/><g id="F"><use transform="matrix(0.05,0,0,0.05,0,0)" xlink:href="#aY"/><use transform="matrix(0.05,0,0,0.05,12,0)" xlink:href="#aL"/><use transform="matrix(0.05,0,0,0.05,21,0)" xlink:href="#aG"/><use transform="matrix(0.05,0,0,0.05,31,0)" xlink:href="#aw"/><use transform="matrix(0.05,0,0,0.05,41,0)" xlink:href="#aD"/><use transform="matrix(0.05,0,0,0.05,46,0)" xlink:href="#aU"/><use transform="matrix(0.05,0,0,0.05,58,0)" xlink:href="#aC"/><use transform="matrix(0.05,0,0,0.05,63.95,0)" xlink:href="#aI"/><use transform="matrix(0.05,0,0,0.05,67.9,0)" xlink:href="#aA"/><use transform="matrix(0.05,0,0,0.05,77.9,0)" xlink:href="#aK"/><use transform="matrix(0.05,0,0,0.05,87.9,0)" xlink:href="#aG"/></g><linearGradient gradientUnits="userSpaceOnUse" id="G" x1="1240" y1="640" x2="1360" y2="520"><stop offset="0%" stop-color="#c8511b"/><stop offset="100%" stop-color="#f90"/></linearGradient><g id="H"><use transform="matrix(0.05,0,0,0.05,0,0)" xlink:href="#aH"/><use transform="matrix(0.05,0,0,0.05,12,0)" xlink:href="#aS"/><use transform="matrix(0.05,0,0,0.05,21,0)" xlink:href="#aF"/><use transform="matrix(0.05,0,0,0.05,30,0)" xlink:href="#aD"/><use transform="matrix(0.05,0,0,0.05,35,0)" xlink:href="#aG"/><use transform="matrix(0.05,0,0,0.05,45,0)" xlink:href="#as"/><use transform="matrix(0.05,0,0,0.05,59.95,0)" xlink:href="#aF"/></g><path d="M240 0l2-218c-23 76-54 145-80 218h-23L58-218 59 0H30v-248h44l77 211c21-75 51-140 76-211h43V0h-30" id="aZ"/><g id="I"><use transform="matrix(0.05,0,0,0.05,0,0)" xlink:href="#aZ"/><use transform="matrix(0.05,0,0,0.05,14.950000000000001,0)" xlink:href="#at"/><use transform="matrix(0.05,0,0,0.05,24.950000000000003,0)" xlink:href="#aw"/><use transform="matrix(0.05,0,0,0.05,34.95,0)" xlink:href="#at"/><use transform="matrix(0.05,0,0,0.05,44.95,0)" xlink:href="#aK"/><use transform="matrix(0.05,0,0,0.05,54.95,0)" xlink:href="#aG"/><use transform="matrix(0.05,0,0,0.05,64.95,0)" xlink:href="#aC"/></g><g id="J"><use transform="matrix(0.05,0,0,0.05,0,0)" xlink:href="#aO"/><use transform="matrix(0.05,0,0,0.05,12,0)" xlink:href="#at"/><use transform="matrix(0.05,0,0,0.05,22,0)" xlink:href="#aC"/><use transform="matrix(0.05,0,0,0.05,27.950000000000003,0)" xlink:href="#at"/><use transform="matrix(0.05,0,0,0.05,37.95,0)" xlink:href="#as"/><use transform="matrix(0.05,0,0,0.05,52.900000000000006,0)" xlink:href="#aG"/><use transform="matrix(0.05,0,0,0.05,62.900000000000006,0)" xlink:href="#aD"/><use transform="matrix(0.05,0,0,0.05,67.9,0)" xlink:href="#aG"/><use transform="matrix(0.05,0,0,0.05,77.9,0)" xlink:href="#aC"/></g><g id="K"><use transform="matrix(0.05,0,0,0.05,0,0)" xlink:href="#aH"/><use transform="matrix(0.05,0,0,0.05,12,0)" xlink:href="#aD"/><use transform="matrix(0.05,0,0,0.05,17,0)" xlink:href="#av"/><use transform="matrix(0.05,0,0,0.05,27,0)" xlink:href="#aC"/><use transform="matrix(0.05,0,0,0.05,32.95,0)" xlink:href="#aG"/></g><linearGradient gradientUnits="userSpaceOnUse" id="L" x1="722" y1="720" x2="842" y2="600"><stop offset="0%" stop-color="#c8511b"/><stop offset="100%" stop-color="#f90"/></linearGradient><linearGradient gradientUnits="userSpaceOnUse" id="M" x1="1440" y1="140" x2="1560" y2="20"><stop offset="0%" stop-color="#c8511b"/><stop offset="100%" stop-color="#f90"/></linearGradient><g id="N"><use transform="matrix(0.05,0,0,0.05,0,0)" xlink:href="#aB"/><use transform="matrix(0.05,0,0,0.05,10.950000000000001,0)" xlink:href="#at"/><use transform="matrix(0.05,0,0,0.05,20.950000000000003,0)" xlink:href="#aC"/><use transform="matrix(0.05,0,0,0.05,26.900000000000002,0)" xlink:href="#aK"/><use transform="matrix(0.05,0,0,0.05,36.900000000000006,0)" xlink:href="#at"/><use transform="matrix(0.05,0,0,0.05,46.900000000000006,0)" xlink:href="#aD"/><use transform="matrix(0.05,0,0,0.05,51.900000000000006,0)" xlink:href="#aG"/></g></defs></g></svg>